<?xml version="1.0" encoding="utf-8"?>
<!-- Generator: Adobe Illustrator 25.0.1, SVG Export Plug-In . SVG Version: 6.00 Build 0)  -->
<svg version="1.1" id="Layer_1" xmlns="http://www.w3.org/2000/svg" xmlns:xlink="http://www.w3.org/1999/xlink" x="0px" y="0px"
	 viewBox="0 0 300 83.07" style="enable-background:new 0 0 300 83.07;" xml:space="preserve">
<style type="text/css">
	.st0{fill:url(#SVGID_1_);}
</style>
<linearGradient id="SVGID_1_" gradientUnits="userSpaceOnUse" x1="1.1176" y1="40.5141" x2="298.329" y2="40.5141">
	<stop  offset="0.2495" style="stop-color:#7620C1"/>
	<stop  offset="0.6131" style="stop-color:#3C8DDA"/>
	<stop  offset="1" style="stop-color:#01FEF4"/>
</linearGradient>
<path class="st0" d="M137.69,44.31c-1.75-0.66-3.27-1.5-4.56-2.51c-1.29-1.01-2.31-2.2-3.05-3.58c-0.74-1.38-1.11-2.98-1.11-4.8
	c0-1.84,0.39-3.52,1.18-5.05c0.79-1.53,1.83-2.84,3.15-3.94c1.31-1.1,2.82-1.95,4.51-2.54c1.69-0.59,3.46-0.89,5.3-0.89
	c1.32,0,2.63,0.13,3.9,0.4c1.28,0.27,2.48,0.67,3.6,1.19c1.12,0.53,2.14,1.18,3.06,1.97c0.92,0.79,1.68,1.69,2.29,2.73
	c0.2,0.31,0.32,0.63,0.35,0.96c0.03,0.33,0.01,0.65-0.07,0.96c-0.08,0.31-0.2,0.61-0.35,0.88c-0.16,0.27-0.34,0.5-0.54,0.71
	c-0.22,0.22-0.5,0.41-0.82,0.56c-0.33,0.15-0.67,0.24-1.04,0.27s-0.76,0.01-1.16-0.08c-0.4-0.09-0.79-0.27-1.14-0.54
	c-0.63-0.56-1.22-1.05-1.78-1.46c-0.56-0.41-1.15-0.76-1.77-1.03c-0.62-0.27-1.28-0.47-1.99-0.61c-0.71-0.13-1.52-0.2-2.44-0.2
	c-1.01,0-1.97,0.13-2.88,0.39c-0.91,0.26-1.71,0.63-2.39,1.13c-0.68,0.49-1.23,1.09-1.63,1.78c-0.4,0.7-0.61,1.48-0.61,2.36
	c0,1.01,0.26,1.84,0.79,2.49c0.53,0.65,1.23,1.19,2.12,1.63c0.89,0.44,1.92,0.8,3.1,1.09c1.18,0.29,2.43,0.58,3.75,0.88
	c1.57,0.43,3.11,0.94,4.63,1.55c1.51,0.61,2.86,1.38,4.04,2.32c1.18,0.94,2.13,2.08,2.84,3.42c0.72,1.34,1.08,2.95,1.08,4.83
	c0,1.91-0.39,3.67-1.16,5.28c-0.77,1.62-1.84,3.01-3.2,4.19c-1.36,1.18-2.95,2.1-4.78,2.78c-1.83,0.67-3.79,1.01-5.87,1.01
	c-1.68,0-3.29-0.22-4.83-0.66c-1.54-0.44-2.95-1.03-4.22-1.78c-1.28-0.75-2.4-1.63-3.37-2.64c-0.97-1.01-1.71-2.09-2.22-3.23
	c-0.27-0.54-0.42-1.05-0.44-1.53c-0.02-0.48,0.03-0.92,0.17-1.31c0.13-0.39,0.34-0.73,0.62-1.03c0.28-0.29,0.6-0.54,0.96-0.74
	c0.83-0.45,1.61-0.54,2.34-0.27c0.73,0.27,1.48,0.89,2.24,1.85c0.94,1.48,2.18,2.63,3.7,3.43c1.53,0.81,3.3,1.21,5.32,1.21
	c0.99,0,1.96-0.13,2.93-0.4c0.96-0.27,1.83-0.67,2.59-1.19c0.76-0.53,1.38-1.18,1.85-1.95c0.47-0.77,0.71-1.65,0.71-2.64
	c0-1.03-0.24-1.88-0.72-2.56c-0.48-0.67-1.11-1.23-1.87-1.67c-0.76-0.44-1.62-0.79-2.57-1.06c-0.95-0.27-1.9-0.53-2.84-0.77
	C141.34,45.49,139.44,44.97,137.69,44.31z M195.7,21.79c1.87,0.53,3.62,1.26,5.23,2.2c1.61,0.94,3.1,2.08,4.44,3.42
	c1.35,1.34,2.49,2.82,3.43,4.44c0.94,1.63,1.68,3.37,2.2,5.23c0.53,1.86,0.79,3.8,0.79,5.82c0,3.03-0.58,5.87-1.73,8.52
	c-1.15,2.65-2.73,4.96-4.71,6.95c-1.99,1.99-4.31,3.55-6.97,4.7c-2.66,1.14-5.5,1.72-8.53,1.72c-3.03,0-5.87-0.57-8.53-1.72
	c-2.66-1.14-4.97-2.71-6.93-4.7c-1.96-1.99-3.51-4.3-4.64-6.95c-1.13-2.65-1.7-5.49-1.7-8.52c0-2.02,0.26-3.96,0.77-5.82
	c0.52-1.86,1.25-3.61,2.19-5.23c0.94-1.63,2.08-3.11,3.4-4.44c1.32-1.33,2.79-2.47,4.41-3.42c1.62-0.94,3.35-1.68,5.22-2.2
	c1.86-0.53,3.8-0.79,5.82-0.79C191.88,21,193.83,21.26,195.7,21.79z M183.97,28.96c-1.84,0.8-3.44,1.88-4.8,3.25
	c-1.36,1.37-2.43,2.97-3.21,4.81c-0.79,1.84-1.18,3.8-1.18,5.89c0,2.13,0.39,4.12,1.18,5.96c0.79,1.84,1.86,3.44,3.21,4.81
	c1.36,1.37,2.96,2.45,4.8,3.23c1.84,0.79,3.81,1.18,5.92,1.18c2.11,0,4.09-0.39,5.94-1.18c1.85-0.79,3.46-1.86,4.83-3.23
	c1.37-1.37,2.44-2.97,3.23-4.81c0.78-1.84,1.18-3.83,1.18-5.96c0-2.09-0.39-4.05-1.18-5.89c-0.79-1.84-1.86-3.44-3.23-4.81
	c-1.37-1.37-2.98-2.45-4.83-3.25c-1.85-0.8-3.83-1.19-5.94-1.19C187.79,27.76,185.81,28.16,183.97,28.96z M248.44,23.29
	c0.17-0.4,0.4-0.75,0.71-1.04c0.3-0.29,0.66-0.52,1.06-0.69c0.4-0.17,0.84-0.25,1.31-0.25c0.94,0,1.74,0.31,2.39,0.94
	c0.65,0.63,0.98,1.41,0.98,2.36v24.44c0,2.18-0.38,4.22-1.14,6.13c-0.76,1.91-1.83,3.57-3.21,5c-1.38,1.43-3.04,2.55-4.96,3.37
	c-1.93,0.82-4.05,1.23-6.36,1.23c-2.31,0-4.45-0.41-6.43-1.23c-1.98-0.82-3.68-1.94-5.12-3.37c-1.44-1.42-2.56-3.09-3.38-5
	c-0.82-1.91-1.23-3.95-1.23-6.13V24.7c0-0.47,0.08-0.91,0.25-1.31c0.17-0.4,0.4-0.76,0.71-1.06c0.3-0.3,0.66-0.54,1.06-0.72
	c0.4-0.18,0.84-0.27,1.31-0.27c0.47,0,0.91,0.09,1.31,0.27c0.4,0.18,0.76,0.42,1.06,0.72c0.3,0.3,0.54,0.66,0.72,1.06
	c0.18,0.4,0.27,0.84,0.27,1.31v24.17c0,1.26,0.24,2.45,0.71,3.58c0.47,1.13,1.12,2.12,1.95,2.96c0.83,0.84,1.82,1.51,2.98,2
	c1.15,0.49,2.42,0.74,3.79,0.74c1.37,0,2.61-0.25,3.72-0.74c1.11-0.49,2.06-1.17,2.84-2.02c0.78-0.85,1.39-1.84,1.82-2.96
	c0.43-1.12,0.64-2.31,0.64-3.57V24.6C248.19,24.13,248.28,23.69,248.44,23.29z M97.41,16.6c-8.34-0.22-15.73,3.84-20.16,10.14
	c-1.11,1.59-2.04,3.32-2.74,5.16c-0.84,2.21-1.13,4.58-1.01,6.94c0.03,0.56,0.04,1.12,0.04,1.68c0,1.36-0.08,2.7-0.24,4.01
	c-1.99,16.43-16.01,29.16-32.99,29.1C22.34,73.57,7.57,58.97,7.32,41C7.05,22.49,21.98,7.4,40.43,7.4
	c14.81,0,27.33,9.72,31.57,23.13c1.33-2.27,2.97-4.97,4.02-6.68C69.73,10.43,56.09,1.14,40.27,1.21
	C18.51,1.29,0.84,19.27,1.12,41.03C1.4,62.5,18.89,79.82,40.43,79.82c16.92,0,31.33-10.69,36.88-25.67c0.33-0.9,0.64-1.82,0.9-2.75
	c0.85-2.97,1.01-6.08,0.7-9.15c-0.06-0.6-0.09-1.22-0.09-1.84c0-1.63,0.22-3.21,0.63-4.72c2.15-7.9,9.55-13.63,18.22-13.21
	c9.17,0.45,16.6,7.9,17.02,17.07c0.48,10.3-7.73,18.8-17.93,18.8c-6.27,0-11.78-3.22-14.99-8.09l-2.6,6.19
	c4.35,4.77,10.62,7.77,17.59,7.77c13.35,0,24.13-10.98,23.81-24.39C120.27,27.23,110.02,16.93,97.41,16.6z M35.37,32.91L35.37,32.91
	c6.86,0,12.42,5.56,12.42,12.42V66.3h0c-6.86,0-12.42-5.56-12.42-12.42V32.91z M35.37,15.3L35.37,15.3
	c6.86,0,12.42,5.56,12.42,12.42V32h0c-6.86,0-12.42-5.56-12.42-12.42V15.3z M282.38,20.35c-0.03,0-0.05,0-0.08,0
	c-6.14,0-11.65,3.42-14.37,8.93c-0.99,2.01-1.52,4.29-1.53,6.6l-0.12,29.85h6.6V37.1c0-0.46,0.02-0.92,0.07-1.39
	c0.06-0.56,0.13-1.27,0.15-1.39c0.94-4.26,4.8-7.36,9.17-7.37c0.01,0,0.02,0,0.03,0c5.16,0,9.38,4.19,9.42,9.35
	c0.02,2.53-0.95,4.92-2.73,6.71c-1.78,1.8-4.16,2.79-6.69,2.79c-2.68,0-5.23-1.15-7.01-3.14l-0.11,8.07c2.2,1.1,4.65,1.67,7.13,1.67
	c8.82,0,16.01-7.17,16.02-15.99C298.35,27.6,291.19,20.4,282.38,20.35z"/>
</svg>
