<?xml version="1.0" encoding="utf-8"?>
<!-- Generator: Adobe Illustrator 25.0.1, SVG Export Plug-In . SVG Version: 6.00 Build 0)  -->
<svg version="1.1" id="Layer_1" xmlns="https://www.w3.org/2000/svg" xmlns:xlink="https://www.w3.org/1999/xlink" x="0px" y="0px"
	 viewBox="0 0 64 64" style="enable-background:new 0 0 64 64;" xml:space="preserve">
<style type="text/css">
	.st0{fill:url(#SVGID_1_);}
	.st1{fill:#FFFFFF;}
</style>
<linearGradient id="SVGID_1_" gradientUnits="userSpaceOnUse" x1="75.5767" y1="-116.9751" x2="372.8001" y2="-116.9751" gradientTransform="matrix(1 0 0 -1 0 63.8898)">
	<stop  offset="0.2495" style="stop-color:#7620C1"/>
	<stop  offset="0.6131" style="stop-color:#3C8DDA"/>
	<stop  offset="1" style="stop-color:#01FEF4"/>
</linearGradient>
<path class="st0" d="M212.2,184.7c-1.8-0.7-3.3-1.5-4.6-2.5s-2.3-2.2-3.1-3.6s-1.1-3-1.1-4.8c0-1.8,0.4-3.5,1.2-5.1s1.8-2.8,3.1-3.9
	c1.3-1.1,2.8-1.9,4.5-2.5c1.7-0.6,3.5-0.9,5.3-0.9c1.3,0,2.6,0.1,3.9,0.4c1.3,0.3,2.5,0.7,3.6,1.2c1.1,0.5,2.1,1.2,3.1,2
	c0.9,0.8,1.7,1.7,2.3,2.7c0.2,0.3,0.3,0.6,0.4,1s0,0.6-0.1,1c-0.1,0.3-0.2,0.6-0.4,0.9s-0.3,0.5-0.5,0.7c-0.2,0.2-0.5,0.4-0.8,0.6
	c-0.3,0.1-0.7,0.2-1,0.3s-0.8,0-1.2-0.1c-0.4-0.1-0.8-0.3-1.1-0.5c-0.6-0.6-1.2-1.1-1.8-1.5s-1.1-0.8-1.8-1c-0.6-0.3-1.3-0.5-2-0.6
	c-0.7-0.1-1.5-0.2-2.4-0.2c-1,0-2,0.1-2.9,0.4s-1.7,0.6-2.4,1.1c-0.7,0.5-1.2,1.1-1.6,1.8c-0.4,0.7-0.6,1.5-0.6,2.4
	c0,1,0.3,1.8,0.8,2.5c0.5,0.6,1.2,1.2,2.1,1.6s1.9,0.8,3.1,1.1c1.2,0.3,2.4,0.6,3.8,0.9c1.6,0.4,3.1,0.9,4.6,1.6
	c1.5,0.6,2.9,1.4,4,2.3s2.1,2.1,2.8,3.4c0.7,1.3,1.1,2.9,1.1,4.8c0,1.9-0.4,3.7-1.2,5.3c-0.8,1.6-1.8,3-3.2,4.2
	c-1.4,1.2-2.9,2.1-4.8,2.8c-1.8,0.7-3.8,1-5.9,1c-1.7,0-3.3-0.2-4.8-0.7c-1.5-0.4-2.9-1-4.2-1.8c-1.3-0.8-2.4-1.6-3.4-2.6
	s-1.7-2.1-2.2-3.2c-0.3-0.5-0.4-1.1-0.4-1.5s0-0.9,0.2-1.3c0.1-0.4,0.3-0.7,0.6-1c0.3-0.3,0.6-0.5,1-0.7c0.8-0.4,1.6-0.5,2.3-0.3
	c0.7,0.3,1.5,0.9,2.2,1.9c0.9,1.5,2.2,2.6,3.7,3.4c1.5,0.8,3.3,1.2,5.3,1.2c1,0,2-0.1,2.9-0.4c1-0.3,1.8-0.7,2.6-1.2
	c0.8-0.5,1.4-1.2,1.9-1.9s0.7-1.6,0.7-2.6c0-1-0.2-1.9-0.7-2.6c-0.5-0.7-1.1-1.2-1.9-1.7s-1.6-0.8-2.6-1.1c-0.9-0.3-1.9-0.5-2.8-0.8
	C215.8,185.8,213.9,185.3,212.2,184.7z M270.2,162.1c1.9,0.5,3.6,1.3,5.2,2.2c1.6,0.9,3.1,2.1,4.4,3.4c1.4,1.3,2.5,2.8,3.4,4.4
	c0.9,1.6,1.7,3.4,2.2,5.2c0.5,1.9,0.8,3.8,0.8,5.8c0,3-0.6,5.9-1.7,8.5c-1.1,2.6-2.7,5-4.7,6.9c-2,2-4.3,3.6-7,4.7
	c-2.7,1.1-5.5,1.7-8.5,1.7s-5.9-0.6-8.5-1.7c-2.7-1.1-5-2.7-6.9-4.7c-2-2-3.5-4.3-4.6-6.9s-1.7-5.5-1.7-8.5c0-2,0.3-4,0.8-5.8
	c0.5-1.9,1.2-3.6,2.2-5.2c0.9-1.6,2.1-3.1,3.4-4.4c1.3-1.3,2.8-2.5,4.4-3.4s3.3-1.7,5.2-2.2c1.9-0.5,3.8-0.8,5.8-0.8
	C266.4,161.4,268.3,161.6,270.2,162.1z M258.4,169.3c-1.8,0.8-3.4,1.9-4.8,3.2s-2.4,3-3.2,4.8c-0.8,1.8-1.2,3.8-1.2,5.9
	c0,2.1,0.4,4.1,1.2,6c0.8,1.8,1.9,3.4,3.2,4.8c1.4,1.4,3,2.4,4.8,3.2c1.8,0.8,3.8,1.2,5.9,1.2c2.1,0,4.1-0.4,5.9-1.2
	s3.5-1.9,4.8-3.2s2.4-3,3.2-4.8c0.8-1.8,1.2-3.8,1.2-6c0-2.1-0.4-4.1-1.2-5.9c-0.8-1.8-1.9-3.4-3.2-4.8c-1.4-1.4-3-2.4-4.8-3.2
	c-1.9-0.8-3.8-1.2-5.9-1.2C262.3,168.1,260.3,168.5,258.4,169.3z M322.9,163.6c0.2-0.4,0.4-0.8,0.7-1c0.3-0.3,0.7-0.5,1.1-0.7
	s0.8-0.2,1.3-0.2c0.9,0,1.7,0.3,2.4,0.9c0.6,0.6,1,1.4,1,2.4v24.4c0,2.2-0.4,4.2-1.1,6.1s-1.8,3.6-3.2,5s-3,2.6-5,3.4
	c-1.9,0.8-4,1.2-6.4,1.2s-4.5-0.4-6.4-1.2c-2-0.8-3.7-1.9-5.1-3.4c-1.4-1.4-2.6-3.1-3.4-5s-1.2-3.9-1.2-6.1v-24.3
	c0-0.5,0.1-0.9,0.2-1.3s0.4-0.8,0.7-1.1c0.3-0.3,0.7-0.5,1.1-0.7c0.4-0.2,0.8-0.3,1.3-0.3s0.9,0.1,1.3,0.3c0.4,0.2,0.8,0.4,1.1,0.7
	s0.5,0.7,0.7,1.1s0.3,0.8,0.3,1.3v24.2c0,1.3,0.2,2.4,0.7,3.6s1.1,2.1,2,3c0.8,0.8,1.8,1.5,3,2c1.1,0.5,2.4,0.7,3.8,0.7
	s2.6-0.2,3.7-0.7c1.1-0.5,2.1-1.2,2.8-2s1.4-1.8,1.8-3c0.4-1.1,0.6-2.3,0.6-3.6V165C322.7,164.5,322.8,164,322.9,163.6z
	 M171.9,156.9c-8.3-0.2-15.7,3.8-20.2,10.1c-1.1,1.6-2,3.3-2.7,5.2c-0.8,2.2-1.1,4.6-1,6.9c0,0.6,0,1.1,0,1.7c0,1.4-0.1,2.7-0.2,4
	c-2,16.4-16,29.2-33,29.1c-18-0.1-32.7-14.7-33-32.6c-0.3-18.5,14.7-33.6,33.1-33.6c14.8,0,27.3,9.7,31.6,23.1c1.3-2.3,3-5,4-6.7
	c-6.3-13.4-19.9-22.7-35.8-22.6c-21.8,0.1-39.4,18.1-39.2,39.8c0.3,21.5,17.8,38.8,39.3,38.8c16.9,0,31.3-10.7,36.9-25.7
	c0.3-0.9,0.6-1.8,0.9-2.8c0.9-3,1-6.1,0.7-9.1c-0.1-0.6-0.1-1.2-0.1-1.8c0-1.6,0.2-3.2,0.6-4.7c2.1-7.9,9.6-13.6,18.2-13.2
	c9.2,0.4,16.6,7.9,17,17.1c0.5,10.3-7.7,18.8-17.9,18.8c-6.3,0-11.8-3.2-15-8.1l-2.6,6.2c4.4,4.8,10.6,7.8,17.6,7.8
	c13.4,0,24.1-11,23.8-24.4C194.7,167.6,184.5,157.3,171.9,156.9z M109.8,173.3L109.8,173.3c6.9,0,12.4,5.6,12.4,12.4v21l0,0
	c-6.9,0-12.4-5.6-12.4-12.4V173.3z M109.8,155.7L109.8,155.7c6.9,0,12.4,5.6,12.4,12.4v4.3l0,0c-6.9,0-12.4-5.6-12.4-12.4V155.7z
	 M356.9,160.7C356.8,160.7,356.8,160.7,356.9,160.7c-6.2,0-11.7,3.4-14.4,8.9c-1,2-1.5,4.3-1.5,6.6l-0.1,29.9h6.6v-28.6
	c0-0.5,0-0.9,0.1-1.4c0.1-0.6,0.1-1.3,0.1-1.4c0.9-4.3,4.8-7.4,9.2-7.4c0,0,0,0,0,0c5.2,0,9.4,4.2,9.4,9.4c0,2.5-1,4.9-2.7,6.7
	c-1.8,1.8-4.2,2.8-6.7,2.8c-2.7,0-5.2-1.1-7-3.1l-0.1,8.1c2.2,1.1,4.6,1.7,7.1,1.7c8.8,0,16-7.2,16-16
	C372.8,167.9,365.7,160.8,356.9,160.7z"/>
<path class="st1" d="M19.2,12.6c-0.1,4.4,2,8.3,5.4,10.7c0.8,0.6,1.8,1.1,2.7,1.5c1.2,0.5,2.4,0.6,3.7,0.5c0.3,0,0.6,0,0.9,0
	c0.7,0,1.4,0,2.1,0.1c8.7,1,15.5,8.5,15.5,17.5c0,9.5-7.8,17.4-17.3,17.5c-9.8,0.1-17.8-7.8-17.8-17.6c0-7.9,5.2-14.5,12.3-16.8
	c-1.2-0.7-2.6-1.6-3.5-2.1c-7.1,3.3-12.1,10.6-12,19c0,11.5,9.6,20.9,21.1,20.8c11.4-0.2,20.6-9.4,20.6-20.9c0-9-5.7-16.6-13.6-19.6
	c-0.5-0.2-1-0.3-1.5-0.5c-1.6-0.5-3.2-0.5-4.9-0.4c-0.3,0-0.7,0-1,0c-0.9,0-1.7-0.1-2.5-0.3c-4.2-1.1-7.2-5.1-7-9.7
	c0.2-4.9,4.2-8.8,9.1-9c5.5-0.2,10,4.1,10,9.5c0,3.3-1.7,6.2-4.3,8l3.3,1.4c2.5-2.3,4.1-5.6,4.1-9.3c0-7.1-5.8-12.8-13-12.6
	C24.9,0.4,19.4,5.9,19.2,12.6z M28.8,38L28.8,38c3.6,0,6.6,3,6.6,6.6v11.1l0,0c-3.6,0-6.6-3-6.6-6.6V38z M28.8,28.7L28.8,28.7
	c3.6,0,6.6,3,6.6,6.6v2.3l0,0c-3.6,0-6.6-3-6.6-6.6V28.7z"/>
</svg>
