<?xml version="1.0" encoding="UTF-8"?>
<svg xmlns="https://www.w3.org/2000/svg" id="Layer_1" data-name="Layer 1" viewBox="0 0 24 24" width="512" height="512"><path d="m21,5h-7c-1.654,0-3,1.346-3,3v16h13V8c0-1.654-1.346-3-3-3Zm0,16h-7v-13h7v13Zm-6-3.5c0-1.381,1.119-2.5,2.5-2.5s2.5,1.119,2.5,2.5-1.119,2.5-2.5,2.5-2.5-1.119-2.5-2.5Zm1-6c0-.828.672-1.5,1.5-1.5s1.5.672,1.5,1.5-.672,1.5-1.5,1.5-1.5-.672-1.5-1.5Zm-13,1.5h6v8H3v-3h3v-2H0V3.5C0,1.57,1.57,0,3.5,0h13.051c1.758,0,3.204,1.308,3.449,3H3.5c-.275,0-.5.224-.5.5v9.5Z"/></svg>
