<?xml version="1.0" encoding="utf-8"?>
<!-- Generator: Adobe Illustrator 28.1.0, SVG Export Plug-In . SVG Version: 6.00 Build 0)  -->
<svg version="1.1" id="Warstwa_1" xmlns="http://www.w3.org/2000/svg" xmlns:xlink="http://www.w3.org/1999/xlink" x="0px" y="0px"
	 viewBox="0 0 364.2 89" style="enable-background:new 0 0 364.2 89;" xml:space="preserve">
<style type="text/css">
	.st0{fill-rule:evenodd;clip-rule:evenodd;fill:#1CA857;}
	.st1{fill:#15304E;}
	.st2{fill:#1CA857;}
</style>
<g>
	<polygon class="st0" points="276.8,62.4 282.4,62.4 282.4,83.4 358.6,83.4 358.6,28 320.6,6.5 276.8,30.9 276.8,24.4 314.8,3.2 
		320.6,0 326.3,3.2 364.2,24.7 364.2,29.9 364.2,29.9 364.2,89 358.6,89 358.6,89 282.4,89 282.4,89 276.8,89 276.8,89 276.8,89 
		276.8,83.4 276.8,83.4 	"/>
	<path class="st1" d="M8.9,45.9h13v-4.8h-13v-6.3h22.3V30H2.3v28.3h29.2v-5.3H8.9V45.9z M66.7,35h-8.2L45,44.4V35h-5.7v23.2H45V47.8
		l14.6,10.5h8.9L50.7,45.8L66.7,35z M94.5,35H76.6c-4.5,0-6,1-6,5.5v12.2c0,4.4,1.4,5.5,6,5.5h17.9c4.5,0,6-1.1,6-5.5V40.5
		C100.5,36.1,99,35,94.5,35z M94.8,53.8H76.2V39.3h18.7V53.8z M103.7,35h13v23.2h6.6V35h13v-5h-32.6V35z M144.5,48.2h11.2v-4h-11.2
		v-5h19.2V35h-24.8v23.2h25.1v-4.3h-19.4V48.2z M189.8,35h-14.4c-4.6,0-6,1.2-6,5.5v12.2c0,4.3,1.4,5.5,6,5.5h14.4
		c4.6,0,6.1-1.2,6.1-5.5V50l-5.7-1.2v4.9H175V39.3h15.2v4.3l5.7-0.8v-2.2C195.9,36.1,194.4,35,189.8,35z M226.2,43.9h-17.6V35h-5.7
		v23.2h5.7v-9.7h17.6v9.7h5.6V35h-5.6V43.9z M263.6,50.4L243.9,35H240v23.2h5.1V42.6l19.6,15.6h3.9V35h-5.1V50.4z M276.8,58.2h5.6
		V35h-5.6V58.2z M336.9,35h-5.4l-13.2,22.2l-16.4-11.5l16-10.7h-8.2l-13.5,9.4V35h-5.7v23.2h5.7V47.8l14.6,10.5h6.9h2h3.7l2.9-5.1
		h15.3l2.9,5.1h6.3L336.9,35z M328.7,48.9l5.2-9.6l5.4,9.6H328.7z"/>
	<path class="st2" d="M306.7,62.4h-12.1c-3.1,0-4.1,0.8-4.1,3.9v8.7c0,3.1,1,3.9,4.1,3.9h12.1c3.1,0,4.1-0.8,4.1-3.9v-8.7
		C310.7,63.2,309.7,62.4,306.7,62.4 M306.9,75.9h-12.6V65.4h12.6V75.9z M314.5,65.4h10.3l-11.5,11.8V79h17.6v-3.1h-11.6l11.6-11.8
		v-1.6h-16.5V65.4z M337.9,75.9v-4.1h7.6v-2.8h-7.6v-3.7h13v-2.8h-16.8V79H351v-3.1H337.9z"/>
</g>
</svg>
