<?xml version="1.0" encoding="utf-8"?>
<!-- Generator: Adobe Illustrator 28.1.0, SVG Export Plug-In . SVG Version: 6.00 Build 0)  -->
<svg version="1.1" id="Layer_1" xmlns="http://www.w3.org/2000/svg" xmlns:xlink="http://www.w3.org/1999/xlink" x="0px" y="0px"
	 viewBox="0 0 173.1 169.6" style="enable-background:new 0 0 173.1 169.6;" xml:space="preserve">
<style type="text/css">
	.st0{fill:#FFFFFF;}
</style>
<g>
	<path class="st0" d="M136.8,100.7c-4.3,0-7.8-3.2-8.1-7.3c-0.1-1.6,0.3-3,2-3.4c1.7-0.3,2.7,0.6,3,2.3c0.3,1.9,1.3,3.2,3.3,3.2
		c1.8,0,2.6-1.3,3-3c0.3-1.7,1.4-2.9,3.3-2.4c1.9,0.5,2,2.2,1.8,3.8C144.5,97.9,141,100.8,136.8,100.7z"/>
	<g>
		<path class="st0" d="M160.5,88.5c-1.9-0.6-3-1.6-3.6-3.5c-1.8-5.6-4.7-10.6-8.7-15c-1.5-1.7-1.8-3.3-1.4-5.5
			c1-5.4,1.5-10.9,0.5-16.3c-1-5.5-3.7-7.5-9.2-6.6c-3.4,0.5-6.8,1.5-10,2.8c-4.3,1.7-8.5,3.4-12.7,5.3c-1.9,0.9-3.7,0.2-5.1-0.6
			c-1.4-0.8,0.2-2.3,0.5-3.5c0.7-2.8,1.5-5.6,1.5-8.6c0-1.6-0.3-2.9-2.2-3.1c-2.1-0.2-2.7,1.1-3,2.8c-0.1,0.7-0.2,1.3-0.3,2
			c-1.6,10.6-7.3,18-16.8,22.7c-1.4,0.7-2.7,0.7-4.2,0.5c-5.1-0.7-10.3-0.7-15.4,0c-1.8,0.3-3.3-0.1-4.8-0.9
			C55,55.7,49.2,47,49.2,35.1c-0.1-12,5.7-21.1,16.5-26.3c10.7-5.1,21.1-3.7,30.6,3.5c3.2,2.4,5.5,5.5,7.5,9c0.8,1.5,2,2.7,3.8,1.7
			c1.9-1,1.7-2.7,0.8-4.3c-0.2-0.3-0.3-0.6-0.5-0.9C99.8,5.2,88.3-0.8,73.5,1.2c-14,1.9-23.6,10-27.8,23.5c-4.4,13.9-0.8,26,9.8,36
			c1.2,1.1,2.5,2.1,3.9,3.3c-1.6,0.6-3,1-4.3,1.6c-1,0.4-1.4,1.4-1.3,2.5c0.1,1.2,0.8,1.8,1.8,2.2c1,0.4,2-0.1,2.9-0.4
			c10.1-3.1,20.4-3.7,30.8-2c3.3,0.5,6.5,1.5,9.8,2.4c1.7,0.4,3,0,3.5-1.6c0.6-1.7-0.4-2.8-1.9-3.4c-1.1-0.4-2.3-0.7-3.7-1.2
			c3.5-2.8,6.7-5.6,9.2-9.1c1-1.4,2.4-0.5,3.7-0.2c1.5,0.3,1.1,1.4,1,2.4c-0.5,3.6-0.7,7.1-0.1,10.7c1.5,8.4,7.7,14.6,16.8,15.8
			c8.6,1.1,13.5-1.5,16.5-8.8c0.1-0.2,0.4-0.2,0.7-0.4c2.8,2.9,5.1,6.3,6.2,10.1c1.6,6,5.4,9,11.2,10.1c0.7,0.1,1.3,0.4,1.9,0.6
			c2.3,0.7,3.5,2.3,3.5,4.7c0,3.6,0,7.2,0,10.7c0,2.6-1.3,4.1-3.8,4.9c-3.3,1-6.6,2.1-9.9,3.2c-2.1,0.7-3.8,1.7-5,3.7
			c-4.8,8.1-11.7,14.1-19.9,18.5c-1.8,1-2.9,2.3-3.3,4.3c-0.7,3.7-1.4,7.5-2.1,11.2c-1.4,8-1.4,8-9.3,8c-0.9,0-1.8-0.1-2.7,0
			c-2.1,0.2-3.3-0.4-3.5-2.8c-0.3-2.9-1-5.7-1.7-8.5c-0.5-2.4-2.2-3.7-4.6-3.4c-9,1.3-18.1,1.4-27.1,0.6c-2.3-0.2-3.8,1-4.3,3.3
			c-0.5,2.3-1,4.6-1.3,6.9c-0.4,2.8-1.5,4.4-4.7,4c-1.9-0.3-3.8-0.3-5.7,0c-3.2,0.4-4.3-1-4.7-3.9c-0.7-4.5-1.7-9-2.5-13.5
			c-0.4-2.6-1.7-4.2-3.9-5.4c-30.7-16.3-29.9-63.8-1.8-79.7c1.7-1,3.5-2.2,2-4.5c-1.4-2.1-3.1-1-4.7,0
			c-10.9,6.7-18.2,16.1-21.6,28.4c-0.3,1-0.4,2-0.7,2.9c-0.2,0.9-0.5,1.7-1,3.2c-0.8-5.2-2.6-9-6.9-10.9c-3.7-1.6-7.5,0-9.5,3.9
			c-1.8,3.4-0.8,6.8,2.8,8.9c1.3,0.8,2.8,1.6,4.3,1.9c2.9,0.6,1.9,1.6,0.5,2.9c-2.1,2-4.7,3-7.6,3.3c-1.9,0.2-2.9,1.2-2.7,3.1
			c0.2,1.8,1.5,2.4,3.2,2.3c3.1-0.1,5.9-1.2,8.4-2.9c2.7-1.8,4.5-4.5,6.7-7.3c0.9,1.6,0.5,2.7,0.5,3.8c-0.1,16.5,5.2,31,18.9,40.6
			c6.6,4.7,9.1,10,10.1,17.3c1.5,10.6,2.2,10.9,12.8,10.9c11.4,0,11.4,0,13.4-11.1c0.4-2.1,1-3,3.4-2.9c7,0.4,14.1,0.6,21.1-0.5
			c1.9-0.3,2.6,0.5,2.9,2.2c0.3,2.2,0.7,4.4,1.2,6.6c0.9,3.9,2.7,5.5,6.8,5.6c3.6,0.1,7.2,0.1,10.7,0c3.9-0.1,6-2,6.8-5.7
			c1-4.9,2-9.9,2.7-14.8c0.3-2.2,1.2-3.6,3.2-4.7c6.8-3.8,12.9-8.7,17.1-15.3c2.5-3.9,5.7-5.8,9.9-7c11.6-3.5,12.2-4.4,12.2-16.4
			C172.7,92.9,172.5,92.5,160.5,88.5z M142.4,54.8c-0.1,6.2-1.1,12.2-3.3,18c-1.5,3.8-4.1,5.6-8.2,5.6c-10.4,0.1-16.8-7.9-15.2-19
			c0.4-3.2,1.6-5.3,4.8-6.4c5.1-1.9,10.1-4.2,15.4-5.6c5.6-1.4,6.2-1,6.4,4.7C142.4,53,142.4,53.9,142.4,54.8z M12.7,90.9
			c-1.4-0.9-4.2-0.4-4.6-3.1c-0.2-1.1,0.8-2.2,2.1-2c2.3,0.3,3.2,2.1,3.8,4C14.2,90.7,13.9,91.2,12.7,90.9z"/>
		<polygon class="st0" points="65.7,45.4 80.7,45.4 80.7,42.9 69.3,42.9 80.3,29.9 80.3,27.8 65.7,27.8 65.7,30.2 76.7,30.2 
			65.7,43.2 		"/>
		<polygon class="st0" points="88,45.4 88,33.2 91.8,31 90.5,28.8 88,30.3 88,19.7 84.8,19.7 84.8,32.1 81,34.3 82.3,36.5 
			84.8,35.1 84.8,45.4 		"/>
	</g>
</g>
</svg>
