<?xml version="1.0" encoding="utf-8"?>
<!-- Generator: Adobe Illustrator 28.1.0, SVG Export Plug-In . SVG Version: 6.00 Build 0)  -->
<svg version="1.1" id="Warstwa_1" xmlns="http://www.w3.org/2000/svg" xmlns:xlink="http://www.w3.org/1999/xlink" x="0px" y="0px"
	 viewBox="0 0 434.1 326.8" style="enable-background:new 0 0 434.1 326.8;" xml:space="preserve">
<style type="text/css">
	.st0{fill:#35AD65;}
</style>
<g>
	<path class="st0" d="M217.1,326.8c-31.3,0-62.7,0-94,0c-25.8,0-51.7,0-77.5,0c-7.7,0-15.3,0.3-23-0.2C11.8,325.9,2,316,1.8,305.2
		c-0.3-12.3-0.1-24.5-0.1-36.8c0-26.6,0.1-53.3,0.1-79.9c0-11.1,0-22.2,0-33.3c0-1.1,0-2.3,0.2-3.4c0.6-3.1,3-4.8,6.1-4.7
		c2.9,0.2,5.2,2.3,5.3,5.4c0.1,6.6,0,13.3,0,19.9c0,31.9-0.1,63.8-0.1,95.7c0,11.5,0.1,23-0.1,34.4c-0.2,7.6,5.8,12.8,12.9,12.8
		c34.8-0.1,69.6,0,104.4,0c29.7,0,59.3,0,89,0c1.7,0,1.9-0.6,1.9-2.1c0-28.6,0-57.3,0-85.9c0-30.1,0-60.2,0-90.2
		c0-1.8-0.5-2.2-2.2-2.2c-22.7,0.1-45.4,0-68.1,0c-27.1,0-54.2,0-81.3,0c-20.4,0-40.8,0-61.2,0.1c-3.2,0-5.7-1.1-7.1-4
		c-1.3-2.9-0.7-5.6,1.4-8c13.2-15.5,26.4-31.1,39.7-46.6c4.7-5.4,9.3-10.9,13.9-16.4c15.4-18.1,30.8-36.2,46.2-54.3
		c3.3-3.8,7.4-5.9,12.6-5.7c19.7,0.8,39.3,0.4,59,0.4c28,0,56-0.1,84.1-0.2c20.1-0.1,40.2-0.1,60.3-0.1c4.8,0,8.8,2,11.9,5.6
		c8.2,9.4,16.2,18.9,24.2,28.3c8.3,9.7,16.6,19.3,24.8,29c15.8,18.5,31.5,37.1,47.2,55.6c4.8,5.6,7.2,12.2,7.2,19.6
		c0,28.6,0,57.3,0,85.9c0,4.3-2.3,6.9-6,6.8c-2.7,0-5-1.9-5.5-4.6c-0.2-1.2-0.2-2.5-0.2-3.8c0-27.9-0.1-55.8,0-83.7
		c0-5.2-1.7-9.5-5-13.4c-14.6-17.1-29.1-34.2-43.7-51.3c-16-18.8-32.1-37.7-48-56.5c-0.8-1-1.2-0.9-2,0
		c-12.6,15.9-25.3,31.7-37.9,47.6c-13.4,16.7-26.7,33.5-40.1,50.2c-3.8,4.7-7.5,9.5-11.3,14.1c-1,1.2-1.4,2.4-1.4,3.9
		c0.1,10.3,0,20.5,0,30.8c0,49.5,0,99,0,148.6c0,2.9-0.2,2.5,2.6,2.5c20,0,40.1,0,60.1,0c1.3,0,1.9-0.2,1.9-1.8
		c-0.1-17.9,0-35.9,0-53.8c0-17.5,0-34.9,0-52.4c0-7.6,4.2-13.2,11.4-15.2c1.2-0.4,2.5-0.4,3.8-0.4c12.6,0,25.2,0,37.9,0
		c8.4,0,15,6.5,15,14.9c0.1,31.1,0,62.2,0,93.3c0,4.5,0,9.1,0,13.6c0,1.3,0.3,1.8,1.7,1.8c14.4-0.1,28.7,0,43.1,0
		c6,0,11.9-4.9,11.9-12.3c-0.1-16.5,0-33,0-49.5c0-3.7,1.9-6.2,4.8-6.7c3.8-0.6,6.8,2,6.8,5.9c0,17.1,0.2,34.2-0.1,51.3
		c-0.2,12.6-10.5,22.7-23.2,22.8c-24.5,0.1-49,0-73.5,0c-17.3,0-34.7,0-52,0c-18.8,0-37.6,0-56.3,0
		C224.9,326.8,221,326.8,217.1,326.8C217.1,326.8,217.1,326.8,217.1,326.8z M17.8,123.5c1,0,1.6,0,2.2,0c28.9,0,57.7,0,86.6,0
		c38.5,0,76.9,0,115.4,0c1.7,0,2.8-0.4,3.9-1.8c13.1-16.5,26.3-33,39.5-49.5c4.5-5.6,9-11.3,13.5-16.9c9-11.2,17.9-22.4,26.9-33.7
		c2.5-3.2,5.1-6.4,7.8-9.9c-1,0-1.7,0-2.3,0c-14.3,0-28.6,0-42.9,0c-17.6,0-35.1,0-52.7,0c-33.2,0-66.3,0-99.5,0
		c-2.3,0-3.9,0.7-5.3,2.5c-2.5,3.2-5.2,6.2-7.8,9.3C89,39.6,75.1,56.1,61,72.4c-10.5,12.1-20.7,24.5-31.1,36.7
		C26,113.8,22,118.4,17.8,123.5z M354,260.4c0-17.7,0-35.4,0-53.1c0-2.7-1.3-4-4-4c-12.3,0-24.5,0-36.8,0c-2.8,0-4.1,1.3-4.1,4.1
		c0,1.3,0,2.7,0,4c0,33.9,0,67.9,0,101.8c0,1.5,0.3,2.1,2,2.1c13.6-0.1,27.2-0.1,40.8,0c1.7,0,2.2-0.4,2.2-2.2
		C354,295.6,354,278,354,260.4z"/>
	<path class="st0" d="M111.3,258.4c-9.3,0-18.6,0-27.9,0c-10,0-18.7-8.6-18.8-18.7c-0.1-11.5,0-23.1,0-34.6c0-3.8,0.8-7.4,2.9-10.7
		c3.9-6,9.5-9.1,16.7-9.1c18.1-0.1,36.2-0.1,54.4,0c11.4,0,19.6,8.4,19.6,19.7c0,11.2,0,22.3,0,33.5c0,11.5-8,19.7-19.5,19.8
		C129.5,258.5,120.4,258.4,111.3,258.4C111.3,258.4,111.3,258.4,111.3,258.4z M131.8,219.3C131.8,219.3,131.8,219.3,131.8,219.3
		c4.4,0,8.8,0,13.2,0c1,0,1.5-0.2,1.5-1.4c-0.1-4.5,0-9-0.1-13.6c-0.1-4-3-7.2-7-7.3c-7-0.1-14,0-21,0c-1,0-1.3,0.4-1.3,1.4
		c0,6.5,0,13,0,19.5c0,1.1,0.4,1.4,1.5,1.4C123,219.3,127.4,219.3,131.8,219.3z M90.9,219.3c4.4,0,8.8,0,13.2,0
		c1.1,0,1.4-0.4,1.4-1.4c0-6.5,0-13,0-19.5c0-1-0.3-1.3-1.3-1.3c-6.9,0-13.7-0.1-20.6,0.1c-4.4,0.1-7.2,3.1-7.2,7.6
		c0,4.3,0.1,8.7-0.1,13c0,1.4,0.5,1.7,1.8,1.7C82.3,219.2,86.6,219.3,90.9,219.3z M132,230.9c-4.4,0-8.8,0-13.2,0
		c-1.1,0-1.6,0.2-1.6,1.5c0.1,4.4,0,8.8,0,13.2c0,0.9,0.3,1.3,1.2,1.3c6.9,0,13.9,0,20.8-0.1c4.1-0.1,7.1-3.2,7.3-7.3
		c0.1-2.3,0-4.7,0.1-7.1c0-1.2-0.3-1.6-1.5-1.6C140.7,231,136.3,230.9,132,230.9z M91.1,230.9c-4.3,0-8.7,0-13,0c-0.1,0-0.1,0-0.2,0
		c-1.2-0.2-1.6,0.3-1.5,1.5c0.1,2.3-0.1,4.7,0.1,7.1c0.2,4.4,3.2,7.3,7.6,7.3c6.7,0,13.4,0,20.1,0c1.2,0,1.5-0.3,1.5-1.5
		c-0.1-4.3-0.1-8.6,0-12.8c0-1.3-0.5-1.6-1.7-1.6C99.6,231,95.3,230.9,91.1,230.9z"/>
	<path class="st0" d="M139.9,108.7c-21.7,0-43.5,0-65.2,0c-5.7,0-9.5-3.3-10.1-8.8c-0.3-2.5,0.7-4.7,2.2-6.7
		c4.1-5.5,8.2-10.9,12.2-16.4c9.5-12.7,19-25.4,28.5-38.2c2.3-3.1,4.7-6.3,7-9.4c2.2-3,5.1-4.4,8.8-4.4c17.8,0.1,35.5,0.1,53.3,0.1
		c26.7,0,53.4,0,80.1,0c1.6,0,3.3-0.1,4.9,0c4,0.1,6.9,2,8.5,5.6c1.6,3.7,0.9,7.1-1.7,10.1c-8.4,9.8-16.7,19.5-25,29.3
		c-9.6,11.3-19.4,22.5-28.9,33.9c-2.9,3.5-6.2,5.1-10.8,5C182.5,108.7,161.2,108.7,139.9,108.7z M193.8,72.7
		c-0.2-0.2-0.2-0.3-0.2-0.3c-7.5,0-15.1,0-22.6,0c-0.7,0-1.1,0.4-1.4,0.9c-5.8,7.5-11.6,14.9-17.4,22.4c-0.3,0.3-0.9,0.7-0.5,1.2
		c0.2,0.4,0.8,0.2,1.2,0.2c7.1,0,14.2,0,21.4,0c1.1,0,1.7-0.3,2.4-1.2c3.9-5.2,7.8-10.4,11.7-15.6C190.1,77.7,192,75.2,193.8,72.7z
		 M119.9,72.6c-5.3,0-10.1,0-14.9,0c-2.2,0-4.5,0.3-6.7-0.2c-1-0.2-1.4,0.1-1.9,0.8c-5.6,7.5-11.2,15-16.8,22.4
		c-0.3,0.4-0.8,0.7-0.6,1.2c0.2,0.6,0.9,0.3,1.3,0.3c6.8,0,13.5,0,20.3,0c1.1,0,1.8-0.3,2.4-1.2c3.3-4.6,6.7-9.2,10-13.8
		C115.2,79.1,117.4,75.9,119.9,72.6z M220.7,36.7c-1,0-1.6-0.1-2.2-0.1c-6.4,0-12.8,0-19.2,0c-1.4,0-2.5,0-2.9,1.8
		c-0.3,1.1-1.2,2-2,3c-4,5.1-8,10.3-12,15.4c-0.9,1.2-1.8,2.4-2.8,3.8c0.4,0.1,0.6,0.2,0.7,0.2c7.2,0,14.4,0,21.5,0
		c0.9,0,1.3-0.5,1.7-1.1c2.6-3.5,5.2-7,7.8-10.4C214.5,45.1,217.5,41,220.7,36.7z M146.1,36.6c-7.5,0-14.6,0-21.6,0
		c-1,0-1.3,0.7-1.8,1.3c-4,5.3-8,10.6-11.9,15.9c-1.7,2.3-3.4,4.6-5.2,7.1c7.6,0,14.8,0,22.1,0c0.9,0,1.1-0.6,1.5-1.1
		c2.7-3.7,5.3-7.3,7.9-11C140,44.9,142.9,40.9,146.1,36.6z M183.1,36.9c-1-0.4-1.8-0.3-2.5-0.3c-6.2,0-12.3,0-18.5,0
		c-1.3,0-2,0.4-2.7,1.4c-5.2,7.2-10.4,14.3-15.6,21.5c-0.3,0.4-0.9,0.7-0.5,1.2c0.2,0.4,0.8,0.2,1.2,0.2c6.3,0,12.5-0.1,18.8-0.1
		c0.9,0,1.5-0.3,2.1-1.1c2.1-2.8,4.3-5.5,6.4-8.3C175.6,46.6,179.3,41.8,183.1,36.9z M116.6,97c0.5,0.1,0.7,0.1,1,0.1
		c5.9,0,11.7,0,17.6,0c0.9,0,1.4-0.3,2-1c4.2-5.3,8.5-10.6,12.6-16c1.9-2.5,4-4.8,5.6-7.6c-0.3-0.1-0.5-0.2-0.6-0.2
		c-6.3,0.5-12.7,0.1-19,0.2c-1,0-1.6,0.4-2.2,1.2C129,79.9,124.5,86,120,92.1C118.9,93.7,117.8,95.2,116.6,97z M256.5,36.6
		c-7.2,0-13.8,0-20.4,0c-0.8,0-1.1,0.6-1.5,1.1c-5.5,7.3-10.9,14.6-16.3,21.9c-0.2,0.3-0.5,0.5-0.3,1c5.7,0,11.4,0,17.2,0
		c1,0,1.4-0.5,1.9-1.1c4.6-5.3,9.1-10.6,13.7-15.9C252.5,41.3,254.3,39.1,256.5,36.6z M225.9,72.3c-0.5-0.1-0.8-0.1-1-0.1
		c-5.1,0-10.1,0-15.2,0c-1,0-1.4,0.5-1.9,1.1c-5.6,7.5-11.2,15-16.8,22.4c-0.2,0.3-0.7,0.6-0.4,1.1c0.3,0.4,0.8,0.2,1.2,0.2
		c3.7,0,7.5-0.1,11.2,0c1.3,0,2.1-0.4,2.9-1.4c4-4.7,8-9.3,12-14C220.6,78.7,223.2,75.6,225.9,72.3z"/>
</g>
</svg>
