<?xml version="1.0" encoding="utf-8"?>
<!-- Generator: Adobe Illustrator 28.1.0, SVG Export Plug-In . SVG Version: 6.00 Build 0)  -->
<svg version="1.1" id="Warstwa_1" xmlns="http://www.w3.org/2000/svg" xmlns:xlink="http://www.w3.org/1999/xlink" x="0px" y="0px"
	 viewBox="0 0 382.9 281" style="enable-background:new 0 0 382.9 281;" xml:space="preserve">
<style type="text/css">
	.st0{fill:#35AD65;}
</style>
<g>
	<path class="st0" d="M-0.3,119.6C15.3,106.4,30.9,93.2,46.5,80c18-15.2,36.1-30.3,54.2-45.5c2.1-1.8,4.3-2.6,7.1-2.6
		c10.2,0.1,20.5,0.1,30.7,0c1.3,0,3.5,0.9,3.9-0.9c0.5-2.1,0.9-4.6-1.4-6.5c-5.5-4.5-10.9-9.1-16.4-13.6c-1.7-1.4-3.1-2.9-2.9-5.3
		c0.2-3.5,2.3-5.4,5.5-5.4c13.3-0.1,26.7-0.1,40,0c3.6,0,5.7,2.5,5.6,5.7c-0.1,3.3-2.1,5.3-5.9,5.4c-7.1,0.1-14.2,0-21.3,0.1
		c-0.6,0-1.2,0.1-1.8,0.2c-0.1,1.5,1.1,1.8,1.7,2.4c10.2,8.6,20.4,17.2,30.6,25.8c1.3,1.1,2.5,1.8,4.3,1.8c20.7,0,41.4,0,62.1,0
		c0.6,0,1.3,0.2,1.9-0.8c-1.7-1.5-3.5-3-5.3-4.5c-8.7-7.3-17.4-14.5-26-21.9c-2.4-2.1-4.8-3.2-8-3c-3.7,0.3-7.5,0.1-11.2,0
		c-3.7-0.1-5.9-2.1-6.1-5.3c-0.2-3.3,2.2-5.6,5.9-5.9c0.7-0.1,1.5,0,2.2,0c27.7,0,55.4,0,83.1,0c3.2,0,5.7,0.9,8.2,2.9
		c30.6,25.8,61.3,51.5,92,77.2c2.3,1.9,4.4,3.9,3.2,7.3c-1.2,3.5-4,4-7.2,4c-10.8-0.1-21.7,0-32.5,0c-0.3,1.6,0.9,1.8,1.6,2.4
		c9,7.6,17.9,15.1,26.9,22.6c2.3,2,4.2,4.1,3,7.3c-1.2,3.2-3.9,3.8-7,3.8c-8.4,0.1-8.4,0.1-8.4,8.6c0,3.6-1.1,7.8,0.4,10.7
		c1.5,2.8,6.2,2.2,9.5,2.7c10.5,1.7,11.9,10,13.1,17.9c3.3,21.7-3.8,39.5-20.9,53.2c-1.7,1.3-2.2,2.7-2.2,4.7
		c0.1,14.7,0,29.4,0,44.2c0,7.9-3.5,11.4-11.5,11.4c-24.7,0-49.4,0-74.1,0c-0.9,0-1.8,0-2.6-0.1c-3.1-0.5-4.9-2.4-4.9-5.6
		c-0.1-3,2.2-5.3,5.5-5.4c7.5-0.1,15-0.2,22.5,0c3.2,0.1,4-0.9,3.9-3.9c-0.2-11-0.1-22,0-32.9c0-2.9-0.3-3.9-3.6-2.9
		c-36.3,10.2-71.6-17.4-70.5-55.2c0.2-6.4,1.6-12.6,4-18.6c0.9-2.4,2.4-3.8,4.8-4.8c25.7-10.4,55.4,0.1,69,24.5
		c0.6,1.1,1.2,2.1,1.9,3.5c3.8-7.5,8.5-13.9,14.8-19.1c7.8-6.5,16.8-10.7,26.9-12.2c2.2-0.3,3-0.9,2.9-3.2c-0.2-4.9-0.2-9.7,0-14.6
		c0.1-2.4-0.8-3-3-2.9c-5.6,0.1-11.2,0-16.8,0c-39.3,0-78.6,0-117.9-0.1c-3.5,0-4.3,1-4.3,4.4c0.1,44.5,0.1,89.1,0,133.6
		c0,3.4,0.8,4.5,4.3,4.4c10.7-0.2,21.5-0.1,32.2-0.1c1.2,0,2.5,0,3.7,0.1c2.9,0.4,4.5,2.1,4.7,5c0.2,3-1.2,5.1-4.1,5.8
		c-1.2,0.3-2.5,0.3-3.7,0.3c-75.1,0-150.2,0-225.3,0c-2.1,0-4.3,0-6.2-0.9c-4.1-1.9-5.6-5.4-5.6-9.7c0-18.5,0-36.9,0-55.4
		c0-4.7,2-7.2,5.7-7.2c3.7,0,5.5,2.5,5.5,7.3c0,17,0.1,33.9-0.1,50.9c0,3.2,0.9,3.9,4,3.9c13-0.2,25.9-0.2,38.9,0
		c3.3,0,4.4-0.8,4.4-4.3C64,231.6,64,197.7,64,163.8c0-7.7,2.6-10.3,10.3-10.3c21,0,41.9,0,62.9,0c7.6,0,10.3,2.7,10.3,10.4
		c0,33.8,0.1,67.6-0.1,101.4c0,3.6,0.9,4.6,4.6,4.6c13-0.2,25.9-0.2,38.9,0c2.7,0,3.7-0.6,3.7-3.5c-0.1-48-0.1-96.1,0-144.1
		c0-2.1-0.7-3.4-2.3-4.7c-27.8-23.3-55.7-46.6-83.4-70c-2.5-2.1-3.9-2-6.4,0.1C75,70.9,47.4,94,19.7,117.1c-2,1.7-2.8,3.4-2.8,6
		c0.1,20.3,0.1,40.7,0.1,61c0,1.2,0.1,2.5-0.1,3.7c-0.5,3-2.4,4.7-5.4,4.8c-3,0.1-4.9-1.6-5.6-4.5c-0.3-1.2-0.2-2.5-0.2-3.7
		c0-17.5,0-34.9,0-52.4c0-2.4,0.3-4.7-3-5.3c-1.1-0.2-2-1.7-3-2.6C-0.3,122.6-0.3,121.1-0.3,119.6z M75.3,217.3
		c0,16.3,0.1,32.7-0.1,49c0,2.8,0.7,3.6,3.5,3.6c17.9-0.1,35.9-0.1,53.8,0c2.8,0,3.9-0.6,3.8-3.7c-0.1-32.7-0.1-65.3,0-98
		c0-2.8-0.8-3.6-3.6-3.6c-17.9,0.1-35.9,0.1-53.8,0c-2.9,0-3.8,0.7-3.8,3.7C75.3,184.6,75.3,201,75.3,217.3z M121.6,43.2
		c0.9,1,1.2,1.3,1.4,1.5c27.8,23.3,55.6,46.6,83.3,70c1.6,1.3,3.2,1.6,5.1,1.6c46,0,92,0,138,0c1,0,2.2,0.5,3.2-0.9
		c-5.8-4.8-11.5-9.7-17.5-14.6c-1.6,3.6-3.9,5.5-7.5,4.5c-3.5-1-4.1-4-3.9-7.2c0.1-1.4-0.1-2.7,0-4.1c0.2-1.9-0.5-2.6-2.5-2.6
		c-24.1,0-48.1,0.1-72.2,0c-2.2,0-2.8,0.9-2.7,2.9c0.1,2.4,0.1,4.8-0.3,7.1c-0.6,3-2.7,4.4-5.7,4.2c-2.8-0.2-4.6-1.8-5-4.7
		c-0.2-1.3-0.1-2.7-0.1-4.1c-0.1-6,0.6-5.3-5.4-5.4c-0.9,0-1.8-0.1-2.6,0c-4.8,0.7-8.5-1.3-12.1-4.4c-13.2-11.4-27.2-22-39.9-33.9
		c-8.3-7.8-16.8-11.1-28-10C139,43.9,130.6,43.2,121.6,43.2z M296,211.4c0.3-1,0.6-1.9,0.7-2.9c4.3-31.2-25.9-57-56.1-48.1
		c-2.5,0.7-3.6,2.1-4.3,4.4c-6.3,22.3,5.9,45.8,27.9,53.6c7.5,2.7,15.2,3.3,23.1,1.6c-0.2-1.7-1.4-2.3-2.2-3.1
		c-9.5-9.5-19-19.1-28.5-28.6c-2.1-2.1-4.3-4.2-6.3-6.4c-2.1-2.4-2-5.7,0.1-7.7c2.1-2.1,5.2-2.2,7.8-0.1c0.8,0.6,1.4,1.4,2.1,2.1
		c10.8,10.8,21.7,21.7,32.5,32.5C293.7,209.7,294.5,210.9,296,211.4z M310.2,211.1c0.4,0.3,0.9,0.7,1.3,1c0.7-1,1.2-2.3,2-3.1
		c11-11.1,22-22.1,33-33.1c0.9-0.9,1.8-1.8,2.8-2.4c2.4-1.5,4.9-1.1,6.8,0.9c1.9,2,2.1,4.5,0.6,6.8c-0.7,1.1-1.8,2.1-2.7,3
		c-11.1,11.1-22.2,22.2-33.3,33.3c-0.6,0.6-2,1.1-1.4,2.3c0.2,0.4,1.3,0.6,2,0.7c31.4,4.8,57.8-25.7,48.6-56.2
		c-0.6-2.1-1.7-3.2-3.9-3.9c-16.9-5.1-35.5,0.6-46.7,14.6C310.7,185.7,307.9,197.8,310.2,211.1z M193,53.1c0.4,1.3,1.6,1.9,2.5,2.6
		c8.8,7.4,17.6,14.7,26.3,22.2c1.8,1.5,3.6,2.3,6,2.2c19.7-0.1,39.4,0,59.1-0.1c1.2,0,2.4,0.4,3.8-0.6c-1.1-1-2-1.9-3-2.7
		c-8.6-7.2-17.2-14.4-25.7-21.7c-2-1.7-4-2.5-6.7-2.5c-19.6,0.1-39.1,0-58.7,0.1C195.5,52.6,194.2,52.2,193,53.1z M314.2,41.4
		c0.1-0.3,0.3-0.6,0.4-0.8c-11.2-9.4-22.5-18.9-33.7-28.4c-1-0.9-2.2-0.9-3.5-0.9c-15.7,0-31.4,0-47.1,0c-0.6,0-1.3-0.2-1.7,0.4
		c-0.2,0.6,0.3,0.9,0.6,1.2C240,22,250.8,31,261.6,40.1c1.4,1.2,2.9,1.3,4.5,1.3c9.4,0,18.7,0,28.1,0
		C300.8,41.4,307.5,41.4,314.2,41.4z M347.7,249.3c0-5.9-0.1-11.7,0-17.6c0.1-2.5-0.3-3.2-3-2.3c-10.8,3.6-21.8,3.7-32.7,0.5
		c-2.3-0.7-3.3-0.6-3.3,2.3c0.1,11.5,0.1,22.9,0,34.4c0,2.4,0.5,3.3,3.1,3.2c11-0.1,21.9-0.1,32.9,0c2.6,0,3.1-1,3-3.3
		C347.6,260.8,347.7,255.1,347.7,249.3z M360.5,80.1c0.1-0.3,0.2-0.6,0.3-0.9c-9.8-8.2-19.6-16.4-29.4-24.7c-1.7-1.5-3.5-2-5.8-2
		c-14.8,0.1-29.7,0-44.5,0.1c-1.1,0-2.5-0.5-3.7,0.8c10.4,8.7,20.6,17.3,30.9,25.9c1.2,1,2.6,0.7,3.9,0.7c7.2,0,14.5,0,21.7,0
		C342.8,80.1,351.7,80.1,360.5,80.1z"/>
	<path class="st0" d="M95.6,214c0,2.1,0.1,4.2,0,6.4c-0.2,3.2-2,5.1-5.2,5.4c-3.2,0.2-5.4-1.6-5.8-4.7c-0.5-4.7-0.6-9.5,0.1-14.2
		c0.4-3.1,2.7-4.7,6-4.4c3,0.3,4.7,2.1,4.9,5.1C95.7,209.8,95.6,211.9,95.6,214z"/>
</g>
</svg>
