<?xml version="1.0" encoding="utf-8"?>
<!-- Generator: Adobe Illustrator 28.1.0, SVG Export Plug-In . SVG Version: 6.00 Build 0)  -->
<svg version="1.1" id="Layer_1" xmlns="http://www.w3.org/2000/svg" xmlns:xlink="http://www.w3.org/1999/xlink" x="0px" y="0px"
	 viewBox="0 0 177.4 169.6" style="enable-background:new 0 0 177.4 169.6;" xml:space="preserve">
<style type="text/css">
	.st0{fill:#FFFFFF;}
</style>
<g>
	<path class="st0" d="M65.9,94.1c0,8.9,0,17.9,0,26.8c0,1.3-0.7,3,1.5,3.6c1.3,0.4,2.2,1.6,1.8,3.1c-0.5,1.9-2.1,2.2-3.8,2.2
		c-8.7,0-17.3,0-26,0c-6.5,0-12.9,0.1-19.4-0.1c-3.3-0.1-4.4,1.1-4.3,4.4c0.3,11.1-1.3,9.5,9.6,9.6c12.9,0.1,25.8,0,38.7,0
		c2.1,0,5-0.5,5.1,2.6c0.1,3.1-2.7,2.9-4.9,2.9c-15.3,0-30.5,0-45.8,0c-5.6,0-8.1-2.5-8.2-7.9c-0.1-3.1-0.1-6.2,0-9.2
		c0.1-5,2.7-7.8,7.6-7.5c4.7,0.4,5.5-1.4,5.5-5.7c-0.2-17-0.2-34,0-51c0-3.2-0.7-4.5-4.1-4.3c-4.2,0.3-8.5,0.1-12.8,0
		c-3.3,0-5.8-1.5-6.5-4.8c-0.7-2.9,0.9-4.9,3.4-6.5C30.3,35.7,56.9,19.1,83.6,2.4c3.5-2.2,6.8-2.2,10.3,0
		C120.4,19,147,35.5,173.6,52c2.7,1.7,4.5,3.7,3.6,7.1c-0.9,3.5-3.6,4.3-6.7,4.4c-4.4,0.1-8.8,0.1-13.2,0c-2.5-0.1-3.3,0.8-3.2,3.3
		c0.1,8.4,0.1,16.7,0,25.1c0,2,0.4,4.5-2.7,4.5c-3.1,0-2.7-2.5-2.7-4.5c0-8.2-0.3-16.4,0.1-24.6c0.2-4.5-2.6-3.6-5.1-3.7
		c-2.6-0.1-4.8-0.4-4.7,3.6c0.3,8.3,0.1,16.7,0.1,25.1c0,2,0.1,4.1-2.7,4.1c-2.8,0-2.8-2-2.8-4c0-8.4-0.1-16.7,0.1-25.1
		c0.1-2.8-0.7-4-3.7-3.8c-3.1,0.2-6.2,0.2-9.2,0c-2.7-0.2-3.5,0.9-3.5,3.5c0.1,8.2,0,16.4,0,24.6c0,1.3,0.1,2.7-0.7,3.8
		c-0.8,1.1-2.1,1.1-3.2,0.7c-1.7-0.6-1.7-2.1-1.7-3.6c0-8.4-0.3-16.7,0.1-25.1c0.2-4.1-1.8-4-4.7-4c-3,0-4.9,0.1-4.8,4.1
		c0.3,8.1,0.1,16.1,0.1,24.2c0,2,0.4,4.5-2.7,4.6c-3.4,0.1-2.9-2.6-2.9-4.8c0-8.2-0.1-16.4,0.1-24.6c0.1-2.7-0.8-3.4-3.5-3.5
		c-12.5-0.2-12.5-0.3-12.5,12c0,5.6,0,11.1,0,16.7c0,2.2-0.3,4.3-3.2,4.2c-2.6-0.1-2.8-2.2-2.8-4.2c0-8.1-0.2-16.1,0.1-24.2
		c0.1-3.8-1.1-4.5-4.7-4.6c-3.9-0.1-4.6,1.3-4.5,4.8C66.1,76.8,65.9,85.5,65.9,94.1z M171.2,57.4c-2-1.3-2.9-2-3.9-2.6
		c-25-15.5-49.9-31-74.8-46.6c-2.8-1.8-4.8-1.6-7.5,0.1C60.2,23.8,35.3,39.2,10.5,54.7c-1.1,0.7-2.7,1-3.3,2.7
		C61.6,57.4,115.8,57.4,171.2,57.4z M59.9,93.9c0-6.2,0.1-12.3,0-18.5c-0.1-3.8,1.6-8.7-0.7-11c-2.5-2.5-7.5-0.5-11.4-0.9
		c-3.1-0.3-4,0.7-3.9,3.9c0.2,14.9,0,29.9,0.1,44.8c0,3.9-1.7,9,0.8,11.4c2.5,2.4,7.5,0.4,11.4,0.8c2.9,0.3,3.8-0.8,3.7-3.7
		C59.8,111.7,59.9,102.8,59.9,93.9z M29,93.9c0,8.9,0.2,17.9-0.1,26.8c-0.1,3.4,1.4,3.9,4.2,3.6c2.4-0.3,5.4,1.1,5.3-3.4
		c-0.2-18-0.2-36,0-54c0-4.7-3.1-3-5.4-3.3c-2.7-0.4-4.2,0.2-4.1,3.6C29.2,76.1,29,85,29,93.9z"/>
	<path class="st0" d="M125.4,169.3c-13.9,0-27.8,0-41.7,0c-5.8,0-8.7-2.7-8.7-8.5c-0.1-16.8-0.1-33.7,0-50.5c0-5.7,3-8.6,8.9-8.6
		c27.8-0.1,55.7-0.1,83.5,0c5.9,0,8.7,3.1,8.7,9.1c0,16.6,0,33.1,0,49.7c0,6.1-2.8,8.8-8.8,8.9C153.2,169.3,139.3,169.3,125.4,169.3
		z M125.3,134.2c-13.3,0-26.7,0.1-40-0.1c-3.2,0-4.7,0.4-4.6,4.2c0.3,7.2,0.2,14.4,0,21.5c-0.1,3.1,1.1,4,4.1,4
		c27-0.1,53.9-0.1,80.9,0c3.2,0,4.5-1,4.5-4.3c-0.1-7.2-0.2-14.4,0-21.5c0.1-3.1-1-4-4.1-4C152.6,134.3,139,134.2,125.3,134.2z
		 M125.3,128.8c13.8,0,27.6-0.1,41.3,0.1c4.4,0.1,3.2-2.7,3.3-4.9c0-2.3,0.9-4.9-3.3-4.9c-27.4,0.2-54.8,0.2-82.2,0
		c-4.2,0-3.5,2.3-3.4,4.7c0.1,2.4-1.1,5.2,3.5,5.1C98.1,128.6,111.7,128.8,125.3,128.8z M125.4,113.6c13.6,0,27.2,0,40.9,0
		c2.2,0,4.1,0.1,4-3.1c-0.1-3.1-1.9-3-4.1-3c-27.2,0-54.5,0-81.7,0c-2.1,0-3.6,0-3.7,2.9c-0.1,3.1,1.4,3.2,3.8,3.2
		C98.2,113.6,111.8,113.6,125.4,113.6z"/>
	<path class="st0" d="M101.2,30c0,7.1-5.3,12.5-12.3,12.6c-7.3,0.1-12.7-5.3-12.6-12.6c0.1-7.1,5.3-12.4,12.5-12.4
		C95.9,17.6,101.2,22.9,101.2,30z M89,37.1c3.5-0.1,7-3.9,6.8-7.4c-0.2-3.7-3.7-6.8-7.5-6.5c-3.7,0.2-6.5,3.3-6.5,7
		C81.9,33.8,85.4,37.2,89,37.1z"/>
	<path class="st0" d="M96.2,138.3c6.5,0,11.2,4.9,11.1,11.4c-0.1,6.2-4.9,10.9-11.2,10.9c-6.6,0-11.3-4.8-11.1-11.4
		C85.1,142.8,89.8,138.3,96.2,138.3z M90.6,149.2c0.2,3.5,2.1,5.5,5.4,5.9c2.9,0.4,6.2-2.8,5.9-5.7c-0.3-3.2-2.3-5.5-5.6-5.5
		C92.9,143.8,91,146,90.6,149.2z"/>
	<path class="st0" d="M142.5,156.9c-5.6,0-11.1,0-16.7,0c-2.2,0-4.4-0.5-4.3-3.2c0.1-2.5,2.3-2.7,4.3-2.7c11.3,0,22.6,0,33.9,0
		c1.9,0,4.1,0.1,4.2,2.7c0.1,2.8-2,3.2-4.2,3.2C153.9,156.9,148.2,156.9,142.5,156.9z"/>
	<path class="st0" d="M142.8,145.5c-5.7,0-11.4,0-17.1,0c-2,0-4.1,0-4.2-2.6c-0.2-3.1,2.3-2.8,4.3-2.9c11.3,0,22.5,0,33.8,0
		c1.9,0,4.1-0.1,4.2,2.6c0.1,3-2.2,2.9-4.3,2.9C153.9,145.5,148.4,145.5,142.8,145.5z"/>
</g>
</svg>
