<?xml version="1.0" encoding="utf-8"?>
<!-- Generator: Adobe Illustrator 28.1.0, SVG Export Plug-In . SVG Version: 6.00 Build 0)  -->
<svg version="1.1" id="Layer_1" xmlns="http://www.w3.org/2000/svg" xmlns:xlink="http://www.w3.org/1999/xlink" x="0px" y="0px"
	 viewBox="0 0 177.4 181.4" style="enable-background:new 0 0 177.4 181.4;" xml:space="preserve">
<g>
	<path d="M171.2,53.1c0,28.5,0,57,0,85.4c0,11,0,22,0,33c0,7.4-2.4,9.9-9.6,9.9c-49.5,0-99,0-148.5,0c-8.8,0-13.1-4.3-13.1-12.9
		c0-50,0-100,0-150C0,13,2.7,9.9,8.2,9.8c38.8-0.1,77.7,0,116.5,0c0.3,0,0.6,0.2,1.6,0.7c-5.6,6.1-10.8,12.2-16.4,17.9
		c-1.5,1.5-4.2,0.7-6.3,0.7c-25.8,0-51.6,0.2-77.4,0c-4.9,0-6.2,1.7-6.2,6.4c0.2,39.8,0.1,79.6,0,119.5c0,4.7,1.4,6.5,6.3,6.5
		c40-0.1,80-0.1,120,0c4.6,0,6.1-1.4,6.1-6c-0.3-24-0.2-48-0.4-71.9c0-3.7,0.7-6.7,2.9-9.7c5.2-7,10.2-14.1,15.3-21.2
		C170.5,52.8,170.8,52.9,171.2,53.1z"/>
	<path d="M22.6,86c5.1,0,9.3-0.1,13.4,0c2,0,3.7,0.6,5.5,1.9c7.6,5.9,15.5,11.5,23,17.5c2.4,1.9,3.5,1.4,5.3-0.5
		c30.5-33.6,61.1-67.1,91.5-100.9c3.1-3.5,6.3-4.6,10.4-4c6.1,0.9,7.4,3.7,3.9,8.6c-22,30.6-44,61.3-66,91.9
		c-13,18.1-26.1,36-39,54.1c-2.6,3.6-3.7,3.9-6.2-0.3c-13-21.6-26.3-43.1-39.6-64.6C24.1,88.9,23.6,87.9,22.6,86z"/>
</g>
</svg>
