<?xml version="1.0" encoding="utf-8"?>
<!-- Generator: Adobe Illustrator 28.1.0, SVG Export Plug-In . SVG Version: 6.00 Build 0)  -->
<svg version="1.1" id="Warstwa_1" xmlns="http://www.w3.org/2000/svg" xmlns:xlink="http://www.w3.org/1999/xlink" x="0px" y="0px"
	 viewBox="0 0 360.3 358.3" style="enable-background:new 0 0 360.3 358.3;" xml:space="preserve">
<g>
	<path d="M227.7,61.6c0.3,11.6-0.3,23.2-3.7,34.4c-2.6,8.6-6.4,16.5-12.6,23.1c-1.2,1.3-1.8,2.6-1.7,4.3c0.1,3.2,0.1,6.5,0,9.7
		c-0.2,4,1.7,6.2,5.4,7.4c15.5,5.4,30.9,10.9,46.3,16.4c24.1,8.6,38.1,28.3,37.9,53.3c0,4.8-2.1,7.4-5.9,7.5c-3.8,0.1-6-2.6-6.1-7.3
		c-0.3-20.8-10.2-35-29.6-42c-14.8-5.4-29.7-10.6-44.5-15.9c-1.9-0.7-2.9-0.6-4.2,1.3c-15.1,21.8-42.9,21.9-58.1,0.2
		c-1.3-1.9-2.4-1.9-4.3-1.3c-15.4,5.5-30.9,10.8-46.3,16.4c-17,6.2-27.7,21.8-27.9,39.9c0,0.6,0,1.2,0,1.9c-0.1,4.4-2.4,7-6.1,6.9
		c-3.5-0.1-5.7-2.6-5.9-6.8c-0.7-24.4,13.7-45.3,36.6-53.5c15.4-5.5,30.9-10.9,46.3-16.3c5.8-2,6.3-3.1,6.6-9.2
		c0.4-6.8-0.9-12.4-5.5-18c-6.9-8.3-9.8-18.7-11.2-29.3c-1.9-14.1-2.3-28.4-0.4-42.5c3-22.6,24-40,47.1-39.9
		c23.1,0.2,43.4,17.5,46.9,39.8C228,48.7,227.5,55.1,227.7,61.6z M215.7,58.4c-0.3-0.1-0.4-0.1-0.5-0.1c-0.5,0.1-1,0.1-1.4,0.3
		c-18.6,5.2-36.4,2.5-53.5-6c-3.5-1.7-6.7-3.8-9.4-6.7c-2.1-2.3-2.2-5-0.3-7.5c2-2.6,4.7-3,7.6-1.5c1,0.5,1.8,1.4,2.7,2
		c15.9,10.3,32.9,13.2,51.2,7.6c2.3-0.7,3.4-1.7,2.8-4.6c-3.9-16.1-19.1-28-35.5-27.5c-17.3,0.5-32,12.7-34.4,29.6
		c-1.8,12.7-1.4,25.7,0.2,38.4c1.3,10.3,4.2,20.3,11.6,27.8c4.4,4.5,6.1,9.1,5.4,15c-0.1,1.1,0,2.2,0,3.4c0,5.1,0.4,10.3-2.3,14.9
		c-0.7,1.3,0.1,2.1,0.6,3.1c4.5,7.4,10.9,11.5,19.6,11.4c8.9,0,15.3-4.4,19.9-11.8c0.6-1,1-1.8,0.3-3.1c-2-3.3-2.5-7-2.3-10.8
		c0.1-2.1-0.4-2.6-2.5-1.7c-4.8,2.2-9.9,3.4-15.2,3.4c-3.4,0-5.9-2.2-6.2-5.3c-0.3-3.2,1.8-5.9,5.3-6.5c2.1-0.4,4.2-0.4,6.3-0.9
		c13.2-3.5,21-12.7,25.6-25C215.9,84.1,216.1,71.3,215.7,58.4z"/>
	<path d="M84.5,120.3c-1.4,0.3-2.3,0.6-3.2,0.8c-4.4,1-7.4-0.4-8.4-3.9c-1-3.4,1-6.4,5.2-7.6c3.6-1,6.9-2.7,9.8-5.2
		c7.3-6.3,9-14.5,8.6-23.6c-0.1-2.1-1.5-1.6-2.6-1.6c-11-0.5-20.8-4.2-29.6-10.8c-3.8-2.9-4.6-6.2-2.4-9.2c2.3-3,5.6-3.2,9.5-0.3
		c6.7,4.9,14,7.9,22.3,8.4c2.1,0.1,2.6-0.3,2.3-2.7c-1.3-9.6-10.6-21-25.6-19.9c-11.4,0.8-21.1,10.8-21.6,23.2
		c-0.3,6.6-0.2,13.2,0,19.8c0.3,6.7,3.1,12.3,8.3,16.6c2.6,2.2,3.7,4.7,3.6,8.1c-0.2,6.2-0.1,12.5,0,18.7c0,3.5-1.6,5.4-4.8,6.7
		c-9,3.7-18,7.2-26.7,11.5c-10.4,5.2-15.8,14.1-16.3,25.8c-0.2,5.5,0,11-0.1,16.5c0,3.3,1.4,5.4,4.3,6.7c6.9,3.1,13.8,6.2,20.7,9.4
		c4.3,2,5.8,5.1,4.2,8.5c-1.6,3.4-4.9,4.3-9.2,2.3c-6.9-3.1-13.8-6.2-20.7-9.4c-7.5-3.5-11.4-9.4-11.3-17.8c0.2-8.6-1-17.2,1.3-25.7
		c3.3-12.7,10.8-22,22.6-27.6c7.1-3.3,14.3-6.4,21.5-9.4c1.7-0.7,2.7-1.6,2.4-3.6c-0.1-0.6-0.1-1.3,0-1.9c0.7-6.1-0.5-11.3-5.1-16.2
		c-4.9-5.3-6.8-12.4-6.8-19.7c0.1-8.8-1-17.7,0.7-26.5c3.1-16.1,17.9-28.2,34.6-28.6c16.3-0.3,32.2,11.6,35.2,27.7
		c2.2,11.5,1.8,23.3,0,34.9c-1,6.1-4.2,11.5-8.6,15.9c-1.8,1.8-2.1,3.8-2.5,6.2c-1.5,8.5,1.7,13.2,10.1,15c2.9,0.6,5.5,2.2,8.2,3.5
		c3.7,1.7,5.1,5,3.6,8.2c-1.4,3.1-4.6,4.3-8.1,2.9c-7.4-3-14.7-6-22-9.2c-2.5-1.1-3.7-3.1-3.6-6C84.6,127.7,84.5,124.1,84.5,120.3z"
		/>
	<path d="M299.3,120.3c-1.7,0.4-3.1,0.7-4.6,1c-3.4,0.6-6.3-1.2-7.1-4.4c-0.7-3,0.9-6,4.1-7c3-0.9,6-1.7,8.5-3.6
		c7.3-5.2,10.9-12.4,11-21.3c0-5.7,0.1-11.5,0-17.2c-0.3-13.1-10.8-23.4-23.7-23.5c-13-0.1-23.7,10.4-23.9,23.6
		c-0.1,5.9,0,11.7,0,17.6c0,7.6,2.7,13.9,8.5,18.8c2.5,2.1,3.6,4.5,3.5,7.8c-0.2,6.4-0.1,12.7,0,19.1c0,3-1.2,5.1-3.9,6.2
		c-6.4,2.7-12.8,5.4-19.2,8c-4.1,1.7-7.4,0.7-8.9-2.5c-1.5-3.4,0.1-6.6,4.3-8.5c4.4-2,8.8-4,13.3-5.8c1.7-0.7,2.7-1.6,2.4-3.5
		c-0.1-0.9-0.1-1.7,0-2.6c0.4-5.7-0.3-10.7-4.8-15.2c-4.4-4.3-6.4-10.5-6.8-16.7c-0.6-9.6-1.2-19.2,0.3-28.7
		c2.8-17.6,19-30.4,36.7-29.4c18.4,1,33.2,15.3,34,33.4c0.4,9.2,1,18.4-0.5,27.6c-1.1,6.6-4.1,12.3-8.7,17c-1.9,2-2.2,4-2.6,6.5
		c-1.4,8.1,1.6,12.6,9.6,14.7c4.6,1.2,9,3.7,13.3,5.7c16,7.6,24.2,20.4,24.9,38.1c0.2,5.6,0.1,11.2,0,16.8c-0.2,7.2-3.5,12.8-9.9,16
		c-7.6,3.8-15.3,7.2-23,10.6c-3.7,1.6-7,0.2-8.4-3.1c-1.3-3.1,0.1-6.2,3.7-7.9c6.9-3.2,13.7-6.4,20.7-9.4c3.5-1.5,5.3-3.9,5-7.8
		c-0.4-7,0.7-14-0.7-20.9c-1.9-9.5-7.2-16.7-16-20.8c-8.7-4.1-17.7-7.7-26.7-11.4c-2.8-1.2-4.5-3-4.4-6.2
		C299.3,127.8,299.3,124.2,299.3,120.3z"/>
	<path d="M139.1,352.1c1.3-9,2.2-18.1,4.1-27c1.4-6.6,0.4-11.4-4.9-16c-6.3-5.4-11.8-11.8-17.6-17.8c-2.1-2.1-3.9-4.3-2.7-7.6
		c1.1-3,3.5-3.8,6.4-4.3c10.2-1.6,20.3-3.5,30.5-5.2c2.2-0.4,3.7-1.3,4.8-3.5c4.6-9.2,9.6-18.3,14.2-27.5c1.4-2.7,3.1-4.6,6.2-4.6
		c3.1,0,4.8,1.9,6.2,4.6c4.6,9.1,9.5,18.1,14.1,27.2c1.2,2.4,2.7,3.4,5.3,3.8c10,1.6,20.1,3.4,30.1,5c3,0.5,5.5,1.5,6.5,4.7
		c0.9,3.1-0.9,5.2-2.8,7.2c-7.2,7.4-14.4,14.8-21.7,22.1c-1.6,1.6-2,3.2-1.7,5.3c1.6,10.5,3.1,20.9,4.7,31.4c0.4,2.7,0,5-2.1,6.7
		c-2.3,1.9-4.8,1.5-7.3,0.2c-9.4-4.7-18.9-9.3-28.3-14.2c-2.1-1.1-3.7-1-5.8,0.1c-9.5,4.9-19.1,9.6-28.7,14.3
		C143.6,359.7,139.1,357,139.1,352.1z M206.4,341.4c0.9-1.4,0.5-2.5,0.3-3.6c-0.8-5.8-1.4-11.7-2.7-17.4c-1.4-6.1-0.3-10.7,4.6-14.9
		c5.4-4.7,10.1-10.2,15.5-15.8c-8.4-1.4-16-2.9-23.7-4c-4.3-0.6-7.3-2.3-9.2-6.4c-3-6.4-6.5-12.6-9.8-18.9c-0.4-0.8-0.5-2-2-2
		c-3.5,6.7-7.3,13.3-10.4,20.2c-2.1,4.6-5.2,6.7-10.2,7.3c-7.5,0.9-15,2.5-22.5,3.8c-0.3,0.5-0.7,1.1-1,1.6c6,5.6,12,11.1,18.1,16.7
		c2.6,2.4,3.8,5.1,2.8,8.7c-0.4,1.4-0.4,3-0.7,4.4c-0.9,6.6-1.9,13.3-2.8,19.9c1.8,0.4,2.8-0.5,3.8-1.1c5.5-2.7,11.1-5.1,16.3-8.2
		c4.8-2.8,9-2.9,13.9-0.1C193.2,335.2,199.9,338.2,206.4,341.4z"/>
	<path d="M322.3,309.3c-1-6.6-1.7-12.4-2.8-18.1c-0.7-4.1,0-7.4,3.3-10.4c4.4-4,8.3-8.4,12.9-13.3c-7-1.2-13.3-2.4-19.7-3.4
		c-3-0.5-5-1.8-6.4-4.5c-3-5.9-6.1-11.7-9.4-18c-3.1,5.9-6.1,11.4-8.8,17c-1.6,3.3-3.9,5.2-7.6,5.7c-6,0.8-12,2-17.9,3
		c-0.6,1.4,0.6,1.8,1.2,2.5c4,4.1,8,8.2,11.9,12.4c3,3.1,3.2,6.8,0.6,9.3c-2.7,2.6-5.9,2.3-9.2-1c-7.2-7.3-14.3-14.6-21.4-21.9
		c-2-2-3-4.3-2.1-7.1c0.9-2.7,3.2-3.6,5.8-4.1c8.6-1.4,17.1-3,25.7-4.3c2-0.3,3-1.2,3.9-2.9c3.8-7.5,7.8-15,11.7-22.5
		c1.3-2.5,2.8-4.7,6-4.8c3.4-0.1,5,2.2,6.4,4.9c3.8,7.3,7.6,14.6,11.3,21.9c1,2,2.2,3.2,4.7,3.5c8.4,1.2,16.6,2.8,25,4.2
		c2.7,0.5,5.1,1.4,6.1,4.2c1,3-0.3,5.3-2.4,7.4c-6,6.1-12,12.3-18.1,18.4c-1.4,1.4-1.8,2.6-1.4,4.6c1.4,8.5,2.5,17,3.8,25.5
		c0.4,2.8,0.2,5.3-2.1,7.1c-2.5,1.9-5.1,1.3-7.7,0c-7.5-3.8-15.2-7.5-22.6-11.4c-2-1-3.5-1-5.5,0.1c-7.4,3.8-14.9,7.4-22.4,11.1
		c-4.6,2.3-7.9,1.6-9.7-1.8c-1.8-3.4-0.3-6.6,4.2-8.9c8.8-4.4,17.6-8.6,26.4-13.1c2.9-1.5,5.5-1.5,8.5,0
		C310.3,303.4,316,306.1,322.3,309.3z"/>
	<path d="M96,267.5c-6.9-1.2-12.9-2.5-19-3.3c-3.8-0.5-6-2.3-7.6-5.6c-2.1-4.5-4.6-8.9-6.9-13.3c-0.6-1.1-1.2-2.1-2.1-3.5
		c-3.2,6.1-6.2,11.7-9,17.3c-1.5,2.9-3.5,4.5-6.8,5c-6.2,0.9-12.4,2.1-19,3.2c1.9,3.2,4.6,5.2,6.8,7.6c2.1,2.3,4.3,4.5,6.5,6.7
		c2.3,2.3,3.2,4.7,2.6,8.1c-1.1,6.2-1.8,12.5-2.8,19.6c6.1-3,11.7-5.6,17.1-8.5c3.3-1.8,6.2-1.8,9.5,0c8.6,4.5,17.3,8.7,26,13
		c1.9,1,3.8,2,4.4,4.3c0.6,2.3,0.3,4.5-1.6,6.2c-2.2,2-4.7,2-7.3,0.7c-7.7-3.8-15.4-7.6-23-11.5c-2.2-1.1-3.9-1.3-6.2-0.1
		c-7.4,3.9-14.9,7.4-22.3,11.2c-2.6,1.3-5.2,2-7.7,0.2c-2.5-1.9-2.6-4.5-2.2-7.4c1.4-8.4,2.5-16.8,3.8-25.1c0.3-2.1-0.2-3.5-1.7-4.9
		c-6-6-11.8-12.2-17.8-18.2c-2.1-2.1-3.6-4.3-2.6-7.3c1-3,3.5-3.9,6.4-4.4c7.9-1.2,15.7-2.7,23.5-3.9c3.1-0.5,5-1.8,6.4-4.7
		c3.5-7.2,7.3-14.1,11-21.2c1.3-2.6,2.9-4.7,6.1-4.7c3.2,0,4.8,2.1,6.1,4.7c3.9,7.5,7.9,15,11.7,22.5c0.9,1.9,2.1,2.7,4.2,3
		c8.5,1.3,16.9,2.9,25.3,4.3c2.8,0.5,5,1.5,6,4.3c1,2.9-0.3,5-2.3,7c-7.1,7.2-14.1,14.5-21.1,21.7c-3.4,3.4-6.8,3.7-9.4,1
		c-2.6-2.7-2.2-6.1,1.1-9.5C86.5,277.1,91,272.6,96,267.5z"/>
</g>
</svg>
