<?xml version="1.0" encoding="utf-8"?>
<!-- Generator: Adobe Illustrator 28.1.0, SVG Export Plug-In . SVG Version: 6.00 Build 0)  -->
<svg version="1.1" id="Warstwa_1" xmlns="http://www.w3.org/2000/svg" xmlns:xlink="http://www.w3.org/1999/xlink" x="0px" y="0px"
	 viewBox="0 0 368.3 383.3" style="enable-background:new 0 0 368.3 383.3;" xml:space="preserve">
<style type="text/css">
	.st0{fill:#3EBC77;}
</style>
<g>
	<path class="st0" d="M12.1,383.3c-7.7-2.9-10.5-8.6-10.3-16.7c0.3-13.7,0.1-27.4,0.1-41.2c0-1.5,0-3,0.4-4.4c0.8-2.8,2.9-4,5.7-3.8
		c2.7,0.2,4.4,1.7,4.9,4.3c0.2,1.3,0.2,2.7,0.2,4.1c0,13.8,0,27.7,0,41.5c0,4.8,0.1,4.9,4.7,4.9c70.5,0,141,0,211.5,0.1
		c3.7,0,4.6-1.2,4.6-4.7c-0.1-96.6-0.1-193.1,0-289.7c0-3.6-1.1-4.7-4.7-4.6c-12.6,0.2-25.2,0.1-37.8,0.1c-1.1,0-2.3,0.1-3.4-0.1
		c-3.6-0.4-5.7-2.6-5.6-5.8c0.1-3.2,2.2-5.3,5.9-5.4c4.1-0.1,8.2,0,12.3,0c9.6,0,19.2,0,28.8,0c10.8,0,15.5,4.7,15.5,15.5
		c0,75.6,0,151.2,0,226.8c0,1,0.1,2,0,3c-0.3,2.4,0.8,2.9,3,2.9c35.1-0.1,70.1-0.1,105.2,0c2.8,0,3.9-1.1,3.6-3.8
		c-0.1-0.6,0-1.2,0-1.9c0-95.8,0-191.6,0-287.4c0-5.8,0-5.8-5.7-5.8c-69.9,0-139.7,0-209.6,0c-5.5,0-5.5,0-5.5,5.6
		c0,13.5,0.1,26.9-0.1,40.4c-0.1,3.6,0.6,5.1,4.6,4.8c6.3-0.4,12.7-0.1,19.1-0.1c5.1,0,7.6,1.9,7.5,5.6c-0.1,3.6-2.7,5.6-7.8,5.6
		c-20.1,0-40.2,0-60.3,0c-27.1,0-54.1,0-81.2,0c-5,0-5,0-5,5c0,71.5,0,143,0,214.4c0,1.5,0.1,3-0.1,4.5c-0.4,3-2.2,4.7-5.2,4.8
		c-3,0.1-5-1.5-5.6-4.4c-0.3-1.2-0.2-2.5-0.2-3.7c0-72.1,0-144.2,0-216.3c0-10.7,4.9-15.5,15.6-15.5c13.8,0,27.7-0.1,41.5,0.1
		c3.4,0.1,4.3-1,4-4.2c-0.3-4-0.1-8-0.1-12c0.1-8.6,5.3-13.9,14-14.1c3.6-0.1,7.2,0,10.9,0c11.1,0,22.2-0.1,33.3,0.1
		c2.8,0,4-0.6,3.9-3.7c-0.3-4.7-0.1-9.5,0-14.2C125.1,5.3,130.4,0,138.8,0c71.9,0,143.7,0,215.6,0c8,0,13.3,5.2,13.8,13.2
		c0.1,0.9,0,1.7,0,2.6c0,96.6,0,193.1,0,289.7c0,3,0,6-1.5,8.7c-2.6,4.8-6.7,7.1-12.3,7.1c-14.6,0-29.2,0.1-43.8-0.1
		c-3.8-0.1-4.6,1.1-4.4,4.6c0.3,4.5,0.1,9,0.1,13.5c-0.1,8.3-5.5,13.8-13.9,13.9c-14.5,0.1-28.9,0.1-43.4,0c-3.2,0-4.1,0.9-3.9,4
		c0.3,3.1-0.2,6.3,0.1,9.3c0.7,8.1-2.4,13.8-10,16.8C160.8,383.3,86.5,383.3,12.1,383.3z M270.2,321.3c-7.4,0-14.7,0.1-22.1,0
		c-2.2,0-3.1,0.6-3.1,3c0.1,5,0.1,10,0,15c0,2.1,0.7,2.8,2.8,2.8c14.5-0.1,28.9-0.1,43.4,0c2.7,0,3.8-0.9,3.8-3.7
		c-0.1-4.6-0.2-9.2,0-13.8c0.1-2.5-0.8-3.2-3.2-3.2C284.7,321.4,277.5,321.3,270.2,321.3z M99.5,61.9c7.5,0,14.9-0.1,22.4,0
		c2.1,0,3.2-0.5,3.1-2.9c-0.2-4.5-0.1-9,0-13.5c0.1-2.2-0.8-2.8-2.9-2.8c-14.8,0.1-29.6,0-44.5,0c-2.3,0-3.5,0.8-3.4,3.3
		c0.1,4.4,0.1,8.7,0,13.1C74.1,61.5,75,62,77,62C84.5,61.9,92,61.9,99.5,61.9z"/>
	<path class="st0" d="M294.5,90c0-4.1,0-8.2,0-12.3c0-6.2,1.8-7.9,8.1-7.9c8.5,0,17-0.2,25.4,0.1c3.5,0.1,3.6-1.2,2.7-3.8
		c-4.6-13-13.7-20.9-27.3-22.3c-13.3-1.4-23.8,4.2-30.9,15.6c-3.2,5.1-6,6.6-9.3,4.5c-3.2-2-3.4-5.1-0.4-10.2
		c10.5-17.9,32.4-25.9,51.8-18.9c19.7,7.1,31.6,27.2,28.2,47.8c-3.4,20.5-21.2,35.9-42,36.2c-18.8,0.3-36-12-41.7-29.9
		c-1.4-4.5-0.4-7.6,3-8.7c3.5-1.1,6.1,0.6,7.6,5.1c3.7,10.6,10.9,17.6,21.6,21c2.3,0.7,3.4,0.5,3.2-2.4
		C294.3,99.3,294.5,94.6,294.5,90z M319,81c-3.5,0-7,0.1-10.5,0c-2-0.1-2.9,0.4-2.9,2.7c0.1,7,0.1,13.9,0,20.9
		c0,1.9,0.6,2.2,2.4,1.9c10.1-1.9,20.8-12.6,23-22.8c0.4-1.9,0.2-2.7-2-2.7C325.7,81.1,322.4,81,319,81z"/>
	<path class="st0" d="M98.1,98.5c16.6,0,33.2,0,49.7,0c1.4,0,2.8,0,4.1,0.2c2.6,0.6,4,2.4,4.1,5.1c0.1,2.6-1.1,4.7-3.7,5.4
		c-1.5,0.4-3.2,0.5-4.8,0.5c-33.2,0-66.3,0-99.5,0c-1.1,0-2.3,0-3.4-0.2c-3.4-0.5-5.3-2.7-5-5.8c0.2-3.2,2.1-5,5.3-5.2
		c3.4-0.2,6.7-0.1,10.1-0.1C69.5,98.5,83.8,98.5,98.1,98.5z"/>
	<path class="st0" d="M150.3,271.7c16.8,0,33.7,0,50.5,0c2.7,0,4.9,0.6,6.2,3.2c1.6,3.2-0.2,7-3.9,7.8c-1.3,0.3-2.7,0.2-4.1,0.2
		c-32.8,0-65.6,0-98.3,0c-0.9,0-1.7,0-2.6,0c-3.7-0.3-6-2.7-5.8-6c0.2-3.1,2.5-5.2,6.1-5.2c15.8,0,31.7,0,47.5,0
		C147.3,271.7,148.8,271.7,150.3,271.7z"/>
	<path class="st0" d="M149.8,316.4c-16.6,0-33.1,0-49.7,0c-1.5,0-3,0.1-4.4-0.5c-2.5-1.1-3.7-3-3.4-5.6c0.2-2.7,1.8-4.4,4.4-4.9
		c1.3-0.3,2.7-0.2,4.1-0.2c32.8,0,65.5,0,98.3,0c5.8,0,8.4,1.7,8.5,5.5c0,3.9-2.6,5.7-8.3,5.7C182.7,316.5,166.3,316.4,149.8,316.4z
		"/>
	<path class="st0" d="M149.6,144.9c-16.2,0-32.4,0-48.6,0c-1.5,0-3,0-4.5-0.3c-3-0.6-4.5-2.7-4.3-5.7c0.1-2.8,1.8-4.6,4.6-5.1
		c1.2-0.2,2.5-0.2,3.7-0.2c32.9,0,65.8,0,98.7,0c1,0,2,0,3,0.1c3.2,0.3,5.1,2.1,5.2,5.3c0.1,3.2-1.6,5.1-4.8,5.7
		c-1.3,0.2-2.7,0.2-4.1,0.2C182.2,144.9,165.9,144.9,149.6,144.9z"/>
	<path class="st0" d="M149.7,259.2c-16.3,0-32.7,0-49,0c-1.2,0-2.5,0-3.7-0.1c-2.8-0.4-4.5-2.1-4.7-4.9c-0.3-3,1.2-5,4.1-5.8
		c1.2-0.3,2.5-0.3,3.7-0.3c33.1,0,66.3,0,99.4,0c1.4,0,2.8,0,4.1,0.4c2.7,0.8,4.1,2.8,3.9,5.6c-0.2,2.8-1.8,4.6-4.7,5
		c-1.3,0.2-2.7,0.1-4.1,0.1C182.4,259.2,166,259.2,149.7,259.2z"/>
	<path class="st0" d="M149.6,202.1c-16.5,0-32.9,0-49.4,0c-1.4,0-2.8,0.1-4.1-0.3c-2.8-0.9-4.3-3-3.9-6c0.3-2.8,2.1-4.4,4.9-4.8
		c1-0.1,2-0.1,3-0.1c33.2,0,66.3,0,99.5,0c1.1,0,2.3-0.1,3.4,0.1c2.6,0.5,4.2,2.2,4.5,4.8c0.3,2.6-0.9,4.5-3.3,5.7
		c-1.4,0.7-2.9,0.6-4.4,0.6C183,202.1,166.3,202.1,149.6,202.1z"/>
	<path class="st0" d="M39.7,322.4c0-3.9-0.1-7.7,0-11.6c0.1-4.8,2.9-7.8,7.6-8c8.1-0.2,16.2-0.2,24.3,0c4.6,0.1,7.6,3.2,7.7,8
		c0.2,7.8,0.2,15.7,0,23.6c-0.1,4.7-3,7.8-7.7,7.9c-8.1,0.2-16.2,0.3-24.3,0c-4.8-0.2-7.5-3.2-7.6-8
		C39.6,330.4,39.7,326.4,39.7,322.4z M59.6,331.3c8.5,0,8.5,0,8.5-8.6c0-8.8,0-8.8-8.7-8.8c-8.5,0-8.5,0-8.5,8.6
		C50.9,331.3,50.9,331.3,59.6,331.3z"/>
	<path class="st0" d="M59.3,285.2c-3.9,0-7.7,0.1-11.6,0c-4.9-0.1-7.9-3.1-8-8c-0.1-7.9-0.1-15.7,0-23.6c0.1-5,3.2-8,8.3-8.1
		c7.6-0.1,15.2-0.1,22.8,0c5.2,0.1,8.4,3.1,8.5,8.4c0.1,7.6,0.1,15.2,0,22.8c-0.1,5.4-3.3,8.4-8.8,8.4
		C66.8,285.3,63.1,285.3,59.3,285.2C59.3,285.2,59.3,285.2,59.3,285.2z M68.2,265.2c0-8.4,0-8.4-8.2-8.4c-9,0-9,0-9,9
		c0,8.2,0,8.2,8.4,8.2C68.2,274,68.2,274,68.2,265.2z"/>
	<path class="st0" d="M39.7,208.3c0-4-0.1-8,0-12c0.1-4.8,3-7.7,7.7-7.8c8-0.1,16-0.1,23.9,0c4.7,0.1,7.8,3,7.9,7.7
		c0.2,8,0.2,16,0,23.9c-0.1,4.7-3.1,7.8-7.8,7.9c-8,0.2-16,0.2-23.9,0c-5-0.1-7.8-3.4-7.9-8.6C39.6,215.8,39.7,212,39.7,208.3
		C39.7,208.3,39.7,208.3,39.7,208.3z M59.3,216.9c8.9,0,8.9,0,8.9-9c0-8.3,0-8.3-8.4-8.3c-8.8,0-8.8,0-8.8,9
		C50.9,216.9,50.9,216.9,59.3,216.9z"/>
	<path class="st0" d="M200.3,32.2c12.7,0,25.4,0,38.1,0c4.2,0,6.6,2,6.6,5.4c0.1,3.5-2.3,5.7-6.3,5.7c-11,0.1-21.9,0-32.9,0
		c-14.7,0-29.4,0-44.1,0c-4.3,0-6.8-2.3-6.7-5.8c0.1-3.4,2.6-5.4,6.7-5.4C174.6,32.2,187.5,32.2,200.3,32.2z"/>
	<path class="st0" d="M300.2,226.9c-10.3,0-20.7,0-31,0c-4.6,0-7-1.8-7.1-5.4c-0.1-3.7,2.4-5.8,7-5.8c20.7,0,41.4,0,62.1,0
		c4.5,0,7.3,2.3,7.2,5.8c-0.1,3.4-2.7,5.4-7.1,5.4C320.9,226.9,310.5,226.9,300.2,226.9z"/>
	<path class="st0" d="M300.2,163.7c10.6,0,21.2,0,31.8,0c3.8,0,6.3,2.3,6.3,5.4c0.1,3.1-2.4,5.5-6.1,5.7c-0.9,0.1-1.7,0-2.6,0
		c-19.7,0-39.4,0-59.1,0c-0.7,0-1.5,0-2.2,0c-4.1-0.3-6.4-2.4-6.2-5.9c0.1-3.3,2.3-5.2,6.4-5.3C279.1,163.6,289.6,163.7,300.2,163.7
		z"/>
	<path class="st0" d="M299.9,200.9c-10,0-19.9,0-29.9,0c-1.2,0-2.5,0-3.7-0.2c-2.6-0.6-4.1-2.3-4.2-5c-0.2-2.7,1-4.7,3.6-5.5
		c1.5-0.5,3.2-0.5,4.8-0.5c19.8,0,39.6,0,59.4,0c1.5,0,3,0,4.4,0.4c2.8,0.8,4.2,2.9,3.9,5.6c-0.2,2.7-1.8,4.6-4.7,5
		c-1.2,0.2-2.5,0.1-3.7,0.1C319.9,200.9,309.9,200.9,299.9,200.9z"/>
	<path class="st0" d="M300.3,267.9c10.3,0,20.7,0,31,0c4.4,0,7,2.1,7,5.5c0,3.4-2.6,5.7-7,5.7c-20.8,0-41.6,0-62.4,0
		c-4.4,0-6.9-2.1-6.9-5.6c0-3.6,2.4-5.5,6.9-5.6C279.4,267.9,289.9,267.9,300.3,267.9z"/>
	<path class="st0" d="M129.9,168.4c-10.2,0-20.4,0-30.7,0c-4.7,0-7.2-2.1-7.1-5.8c0.1-3.5,2.6-5.4,7-5.5c20.7,0,41.4,0,62,0
		c4.4,0,6.9,2.1,7,5.6c0,3.5-2.6,5.6-6.9,5.6C150.9,168.5,140.4,168.4,129.9,168.4z"/>
	<path class="st0" d="M169.9,214.4c9.8,0,19.7,0,29.5,0c1.4,0,2.8,0,4.1,0.3c2.8,0.7,4.1,2.7,4,5.5c-0.1,2.6-1.6,4.5-4.2,5
		c-1.4,0.3-3,0.3-4.5,0.3c-19.4,0-38.8,0-58.3,0c-1,0-2,0-3-0.1c-3.6-0.3-5.7-2.5-5.7-5.7c0.1-3.2,2.2-5.2,5.9-5.5c1-0.1,2,0,3,0
		C150.4,214.4,160.2,214.4,169.9,214.4z"/>
	<path class="st0" d="M56.9,164.6c-1.7,0-3.1-0.7-4.3-1.9c-4.4-4.4-8.9-8.7-13.2-13.2c-2.6-2.7-2.6-6.1-0.3-8.3
		c2.3-2.3,5.5-2.1,8.3,0.5c2.4,2.2,4.7,4.5,6.9,6.9c1.5,1.7,2.3,1.5,3.6-0.2c5.1-6.9,10.3-13.8,15.4-20.6c2.8-3.7,6.1-4.5,8.9-2.4
		c2.8,2.1,2.8,5.5,0.1,9.2c-6.6,8.9-13.3,17.7-19.9,26.6C60.9,162.9,59.4,164.4,56.9,164.6z"/>
	<path class="st0" d="M179.1,340c-7,0-14,0-21,0c-4.2,0-6.6-2.1-6.7-5.4c-0.1-3.5,2.4-5.8,6.7-5.8c14.2,0,28.4,0,42.7,0
		c4.3,0,6.8,2.3,6.7,5.8c-0.1,3.4-2.5,5.3-6.7,5.4C193.5,340,186.3,340,179.1,340z"/>
	<path class="st0" d="M117,340c-6.1,0-12.2,0-18.3,0c-4.2,0-6.5-2.1-6.5-5.6c0-3.4,2.4-5.6,6.5-5.6c12.3-0.1,24.6-0.1,37,0
		c4,0,6.6,2.3,6.6,5.6c0,3.3-2.5,5.5-6.6,5.6C129.4,340,123.2,340,117,340z"/>
	<path class="st0" d="M315.4,253c-5.2,0-10.5,0.1-15.7,0c-4-0.1-6.4-2.3-6.4-5.7c0.1-3.3,2.4-5.5,6.2-5.5c10.8-0.1,21.7-0.1,32.5,0
		c3.7,0,6.2,2.3,6.3,5.5c0,3.3-2.5,5.6-6.5,5.7C326.3,253.1,320.9,253,315.4,253z"/>
	<path class="st0" d="M283.1,137.6c5.1,0,10.2-0.1,15.3,0c3.8,0.1,6.2,2.3,6.2,5.5c0,3.2-2.5,5.6-6.2,5.6c-10.1,0.1-20.2,0.1-30.3,0
		c-3.8,0-6.1-2.3-6.1-5.6c0-3.5,2.3-5.5,6.5-5.6C273.4,137.6,278.2,137.6,283.1,137.6z"/>
	<path class="st0" d="M107.3,214.4c3.1,0,6.2-0.1,9.3,0c3.6,0.1,5.9,2.4,6,5.4c0.1,3.2-2.3,5.6-6,5.7c-6.2,0.1-12.5,0.1-18.7,0
		c-3.6-0.1-5.8-2.3-5.8-5.5c0-3.2,2.1-5.4,5.8-5.5C101.1,214.3,104.2,214.4,107.3,214.4z"/>
	<path class="st0" d="M192.5,168.4c-3,0-6,0.1-9,0c-3.8-0.1-6.1-2.4-6-5.7c0-3.2,2.3-5.4,5.8-5.5c6.1-0.1,12.2-0.1,18.3,0
		c3.5,0.1,5.8,2.4,5.9,5.5c0.1,3.3-2.3,5.6-6.1,5.7C198.5,168.5,195.5,168.4,192.5,168.4z"/>
	<path class="st0" d="M325.1,137.7c2.6,0,5.2-0.1,7.8,0c3.2,0.2,5.1,2.1,5.3,5.2c0.2,3.1-1.6,5.5-4.7,5.7c-5.6,0.3-11.2,0.4-16.8,0
		c-3.1-0.2-4.8-2.6-4.5-5.8c0.3-3.2,2.2-4.9,5.4-5.1C320.1,137.6,322.6,137.7,325.1,137.7z"/>
	<path class="st0" d="M273.9,253c-2.1,0-4.2,0.1-6.3,0c-3.3-0.2-5.4-2.4-5.5-5.5c-0.1-3.2,2.1-5.6,5.6-5.7c4.1-0.1,8.2-0.1,12.3,0
		c3.5,0.1,5.7,2.5,5.7,5.6c0,3.1-2.3,5.4-5.8,5.5C277.8,253.1,275.9,253,273.9,253z"/>
	<path class="st0" d="M199.2,98.6c1.1,0,2.2-0.1,3.4,0c3,0.4,4.8,2.2,4.9,5.1c0.2,3.2-1.5,5.3-4.7,5.7c-2.2,0.3-4.5,0.3-6.7,0.1
		c-3.4-0.3-5.4-2.5-5.3-5.5c0-3.2,2.2-5.3,5.8-5.5C197.4,98.5,198.3,98.5,199.2,98.6C199.2,98.5,199.2,98.6,199.2,98.6z"/>
	<path class="st0" d="M173.9,98.4c1.2,0.1,2.5,0,3.7,0.2c2.8,0.4,4.5,2.2,4.6,5c0.2,3-1.2,5.1-4.2,5.8c-2.4,0.6-5,0.5-7.4,0.2
		c-3.3-0.4-5.3-2.8-5.1-5.8c0.3-3.2,2.2-4.9,5.3-5.2C171.9,98.5,172.9,98.5,173.9,98.4C173.9,98.5,173.9,98.5,173.9,98.4z"/>
</g>
</svg>
