<?xml version="1.0" encoding="utf-8"?>
<!-- Generator: Adobe Illustrator 28.1.0, SVG Export Plug-In . SVG Version: 6.00 Build 0)  -->
<svg version="1.1" id="Warstwa_1" xmlns="http://www.w3.org/2000/svg" xmlns:xlink="http://www.w3.org/1999/xlink" x="0px" y="0px"
	 viewBox="0 0 434.1 326.8" style="enable-background:new 0 0 434.1 326.8;" xml:space="preserve">
<style type="text/css">
	.st0{fill:#3DAF6B;}
</style>
<g>
	<path class="st0" d="M217.1,328.2c-50.5,0-101.1-0.2-151.6,0.2c-9.8,0.1-12.9-2.8-12.7-12.6c0.5-38.7-0.1-77.4,0.4-116
		c0.1-9.7-2.6-13.5-12.6-12.7c-5.8,0.5-13.4,3-17.6-2.1c-8.1-9.7-15.2-20.4-22.1-31.1c-2.5-3.9,2.3-5,4.4-6.5
		C73.9,99.2,142.7,51.2,211.3,2.9c5-3.5,8.2-2.9,12.8,0.3c68.3,48,136.7,95.9,205.2,143.6c5.8,4,6.3,7,2,12.1c-3.7,4.3-7.3,9-9.8,14
		c-5.9,11.6-14.5,16.8-27.5,14.4c-9.1-1.6-12.2,2.5-12.1,11.6c0.4,38.7-0.1,77.4,0.4,116c0.1,10.2-2.9,13.5-13.4,13.4
		C318.2,327.9,267.7,328.2,217.1,328.2z M216.7,313c45.7,0,91.5-0.3,137.2,0.2c10.5,0.1,13.5-3.2,13.4-13.4
		c-0.5-38.7,0-77.4-0.4-116.1c-0.1-8.9,1.8-13,11.5-11.9c6.5,0.7,13.2,0.3,19.8,0c8.7-0.4,11.4-8,14.1-14c2.5-5.3-4.2-6.8-7.4-9.1
		c-10.6-7.8-21.5-15.2-32.3-22.8c-48.6-34-97.2-68-145.9-102c-4.5-3.2-8.2-7.3-15-2.6c-61.4,43.3-123,86.4-184.7,129.3
		c-5.1,3.6-5.1,6.3-2.2,11.7c7.6,14.2,20.5,9.3,31.6,9.3c9.1,0,11.9,2.5,11.8,11.8c-0.5,37.8,0.3,75.6-0.5,113.4
		c-0.2,12.3,2.5,16.6,15.8,16.4C127.8,312.4,172.3,313,216.7,313z"/>
	<path class="st0" d="M217.4,47.1c-4.1,0.8-7.2-1-7.1-5.1c0.1-3.1,3.7-5.2,6.5-5.5c3.6-0.4,7.3,2.2,7.7,5.5
		C224.9,46,221.5,47.8,217.4,47.1z"/>
	<path class="st0" d="M170.4,77.9c-3,2.9-5.9,6.9-11,6.8c-2.2,0-4.2-2.7-3.4-4.6c2-4.4,5.9-7.4,10.8-7.6
		C169,72.4,170.1,74.9,170.4,77.9z"/>
	<path class="st0" d="M273.9,85.1c-3.3-2.3-8.2-3.3-9.2-8c-0.6-2.7,1.9-5.6,4.6-4.6c3.8,1.4,8.5,3.1,9.5,7.7
		C279.5,82.9,277.1,84.8,273.9,85.1z"/>
	<path class="st0" d="M116.9,114.3c-2.7,5.2-6.9,7.6-11.3,8.8c-2.3,0.6-4.8-3.1-4-5.3c1.5-4.1,5.7-6.4,9.7-7.6
		C114.6,109.3,114.8,113.3,116.9,114.3z"/>
	<path class="st0" d="M61.6,152.9c-0.9,4.6-5.4,6.2-9,8c-2.8,1.4-5.6-1.7-5.3-4c0.7-5.4,5.9-7,10.2-8.5
		C59.4,147.6,61.1,150.1,61.6,152.9z"/>
	<path class="st0" d="M387.9,156.3c-1.1,2.8-2.6,5.9-5.4,4.6c-3.7-1.6-8.4-3.2-9.1-8.2c-0.3-2.3,1.9-5,3.7-4.5
		C381.5,149.5,385.7,151.9,387.9,156.3z"/>
	<path class="st0" d="M137.8,91.1c3.8,0.1,5.9,2.5,5.3,4.9c-1.2,4.5-5.5,6.6-9.6,7.7c-3.1,0.8-5.4-2.4-4.8-4.7
		C129.9,94.6,135,93.7,137.8,91.1z"/>
	<path class="st0" d="M306.4,99.6c-1.2,2.7-2.7,5.5-5.7,4c-3.6-1.8-8.6-3.1-8.7-8.3c0-2.4,2.3-5.5,5.2-3.7
		C300.6,93.6,305.4,94.8,306.4,99.6z"/>
	<path class="st0" d="M323,109.9c3.9,1.8,8.2,3.6,10,7.7c1.1,2.5-1.8,6.2-3.7,5.5c-3.9-1.5-7.8-4.2-10.4-7.5
		C317.4,113.9,320.2,111.2,323,109.9z"/>
	<path class="st0" d="M89.5,134.3c-3,3.6-6.4,7-11.3,7.7c-2.2,0.3-4.2-2.7-3.8-4.6c1.1-4.7,5.7-6.5,9.5-8.1
		C86.8,128.2,88.3,131.5,89.5,134.3z"/>
	<path class="st0" d="M361.2,136.5c-1.7,3.5-2.8,7-5.9,5.5c-3.7-1.8-8.7-3.3-9.3-8.2c-0.3-2.3,2.2-5.6,5.2-4.2
		C354.9,131.2,358,134.2,361.2,136.5z"/>
	<path class="st0" d="M188.2,66c-3.4,0.1-5.2-2.2-4.8-4.7c0.9-4.7,5.4-6.4,9.3-7.7c2.8-0.9,5.4,2,4.8,4.4
		C196.5,62.6,191.6,63.7,188.2,66z"/>
	<path class="st0" d="M251.7,60.1c-0.2,3.2-1.4,5.9-3.4,5.8c-4.8-0.4-9-3.2-10.9-7.5c-1.1-2.4,1.7-5,4.5-4.7
		C246.2,54.2,249.1,57.5,251.7,60.1z"/>
	<path class="st0" d="M198.8,177.1c0-12-0.1-24,0-36c0.1-7.6,5.2-13.9,12.5-15.9c7.1-1.9,14.7,1.1,18.6,7.4c1.9,3.1,2.5,6.4,2.5,10
		c0,23.3,0,46.6-0.1,69.9c0,1.8,0.5,3,2,4.1c12.1,9.1,15.9,25.2,9.4,38.7c-6.5,13.4-21.5,20.3-36,16.7
		c-14.4-3.7-24.4-17.2-23.4-32.2c0.6-9.7,4.9-17.5,12.7-23.3c1.3-1,1.8-1.9,1.8-3.5C198.8,201.1,198.8,189.1,198.8,177.1
		C198.8,177.1,198.8,177.1,198.8,177.1z M223.7,179.6c0-12.4,0-24.8,0-37.2c0-4.3-2.2-7.4-5.7-8.5c-5.4-1.6-10.3,2.3-10.3,8.2
		c0,24.6,0,49.1,0,73.7c0,3.1-0.9,5.1-3.7,6.7c-8.1,4.7-12.3,14.2-10.6,23c2,10.5,10.6,18.1,21.2,18.6c10,0.5,19.4-6.1,22.4-15.8
		c3.1-10-0.9-20.6-10.1-26.1c-2.5-1.5-3.4-3.3-3.4-6.1C223.7,204.1,223.7,191.8,223.7,179.6z"/>
	<path class="st0" d="M239.6,148.4c0-6.6,4.7-12,11.3-12.9c3.2-0.4,5.5,0.9,5.9,3.5c0.5,2.8-1.1,4.7-4.5,5.3c-2.4,0.4-3.9,2-3.9,4.1
		c0,2.1,1.7,3.8,3.8,4c2.2,0.2,3.9-1.2,4.4-3.6c0-0.2,0-0.5,0.1-0.7c0.5-2.7,2.3-4.3,4.7-4.1c2.5,0.2,4.1,2.3,4,5.1
		c-0.2,6.9-6.2,12.4-13.2,12.3C245.2,161.2,239.6,155.4,239.6,148.4z"/>
	<path class="st0" d="M182.8,152.8c-1.3,0-2.7,0.1-4,0c-2.5-0.2-4.1-2.1-4.1-4.4c0-2.4,1.7-4.3,4.2-4.4c2.8-0.1,5.6-0.1,8.5,0
		c2.5,0.1,4.2,2,4.1,4.4c0,2.4-1.7,4.2-4.2,4.4C185.8,152.9,184.3,152.8,182.8,152.8z"/>
	<path class="st0" d="M182.9,171.9c-1.3,0-2.7,0.1-4,0c-2.4-0.2-4.1-1.8-4.2-4.1c-0.1-2.3,1.3-4.4,3.6-4.6c3.2-0.4,6.5-0.4,9.7,0
		c2.3,0.3,3.7,2.4,3.5,4.7c-0.2,2.2-1.8,3.8-4.1,4C185.9,172,184.4,171.9,182.9,171.9C182.9,171.9,182.9,171.9,182.9,171.9z"/>
	<path class="st0" d="M182.9,191c-1.3,0-2.7,0.1-4,0c-2.5-0.2-4.2-1.9-4.2-4.3c0-2.4,1.6-4.3,4.1-4.4c2.8-0.1,5.6-0.1,8.4,0
		c2.5,0.1,4.2,1.9,4.2,4.3c0,2.4-1.6,4.2-4.1,4.4C185.9,191.1,184.4,191,182.9,191z"/>
	<path class="st0" d="M214.9,256.9c-7.7-0.2-14.5-7-14.4-14.7c0-2.6,1.7-4.6,4.1-4.8c2.5-0.2,4.3,1.5,4.7,4.2
		c0.6,4.3,2.1,5.9,6.5,6.6c2.8,0.4,4.6,2.4,4.3,4.8C219.8,255.4,217.8,256.9,214.9,256.9z"/>
</g>
</svg>
