<?xml version="1.0" encoding="utf-8"?>
<!-- Generator: Adobe Illustrator 28.1.0, SVG Export Plug-In . SVG Version: 6.00 Build 0)  -->
<svg version="1.1" id="Warstwa_1" xmlns="http://www.w3.org/2000/svg" xmlns:xlink="http://www.w3.org/1999/xlink" x="0px" y="0px"
	 viewBox="0 0 512 512" style="enable-background:new 0 0 512 512;" xml:space="preserve">
<style type="text/css">
	.st0{fill:#4BB276;}
</style>
<g>
	<path class="st0" d="M416,512c0-20-0.2-40,0.1-60c0.4-23-9.2-40.9-28.1-53.1c-18.8-12.1-39.6-20.3-59.8-31
		c-2.5,14.7-4.9,28.7-7.1,42.8c-2.5,15.9-6.9,18.6-21.7,12.7c-13.3-5.3-26.6-10.6-39.8-16c-2.5-1-4.6-1-7.1,0
		c-14.3,5.8-28.7,11.6-43.1,17.3c-10,4-15.7,0.8-17.5-9.7c-2.4-13.8-4.6-27.6-6.9-41.4c-0.3-1.8-0.8-3.5-1.3-5.9
		c-20.8,11.6-43.1,19.5-62.4,33.1c-17,12-25.4,29-25.3,50c0.2,20.3,0,40.7,0,61c-7,0-14,0-21,0c-0.3-24.3-1.7-48.7,0.5-72.9
		c2.4-26.5,17.3-46.1,39.6-59.8c17.5-10.7,36.2-19,54.7-27.9c11-5.3,20.5-12,28.8-20.9c13.3-14,13.9-13.8,29.2-2.2
		c8.4,6.3,16.9,12.5,25.1,19c2.3,1.8,3.7,1.8,6,0c7.7-6.1,15.6-12,23.6-17.7c2.8-2,3.8-3.8,2.2-6.9c-0.7-1.5-1.3-3.1-1.6-4.7
		c-0.6-2.9-2-3.1-4.6-2.2c-28,9.9-51.8,2.1-72.2-17.9c-20.7-20.4-30.6-46.1-34.2-74.4c-2.2-17-3.1-34.3,1-51.2
		c10.1-41.9,49.2-69.4,91.8-65.1c41.7,4.2,74.6,39.4,76.2,81.3c1,26.4-1.6,52.2-12.9,76.6c-6.1,13.3-14.1,25.3-24.9,35.2
		c-2,1.8-3,3.5-1.5,6c0.2,0.3,0.2,0.6,0.3,1c2.5,15.1,12.3,25.4,23.2,34.9c1.8,1.6,4.1,2.8,6.4,3.9c21.3,10.9,43.4,20.5,64,32.7
		c25.6,15.2,40.8,37.5,41.5,68c0.5,21.8,0,43.6,0,65.5C430,512,423,512,416,512z M320,199.3c0-2,0-4,0-6
		c-0.3-41.2-34.2-70.3-75.1-64.3c-23.3,3.4-45.4,23.6-50.7,46.3c-0.3,1.1-0.7,2.7-0.1,3.3c1.1,1.2,2.4-0.1,3.6-0.6
		c6.3-2.6,11.6-6.5,16-11.7c7.1-8.2,13.4-8.1,20.7,0.1c8.2,9.3,18.5,14.6,31,14.8c6.5,0.1,13,0.1,19.5,0.1c2.7,0,5.4,0.1,7.8,1.4
		c4.2,2.2,6.3,5.9,5.6,10.7c-0.7,4.8-3.4,7.9-8.2,8.8c-6.6,1.3-13.3,0.4-19.9,0.6c-16.2,0.3-31-3.8-43.6-14.3
		c-1.9-1.6-3.2-1.7-5.1,0c-7.7,6.4-16.4,10.8-26.2,12.7c-2.8,0.5-3.3,1.9-3.2,4.5c0.2,7,0.8,14,2,20.9c3.6,20.4,10.7,39.2,25.1,54.5
		c13.3,14.2,29.4,21.3,49,15.9c15.2-4.2,25.8-14.9,34-27.9C315.6,247.7,320.1,224.1,320,199.3z M300.9,401.1c2-12,3.5-23.7,6.1-35.2
		c1.8-7.8,0-13.2-6.1-18.1c-2.6-2.1-4-2.8-6.9-0.5c-9.7,7.6-19.6,14.9-29.5,22.2c-6.7,5-10.4,5-17.1,0.1c-8.1-6-16.2-12.2-24.4-18.3
		c-8.9-6.7-8.9-6.6-16.9,1.4c-2.2,2.2-2.7,4.3-2.2,7.1c2.1,12.5,4.2,24.9,6.2,37.4c0.5,3.5,1.8,3.7,4.8,2.4
		c10.7-4.5,21.7-8.4,32.3-13.1c6.1-2.7,11.6-2.5,17.7,0.1C276.7,391.7,288.7,396.2,300.9,401.1z"/>
	<path class="st0" d="M0,134c2.7-10,7.4-18.4,17-23.5c5.2-2.7,10.6-3.8,16.3-3.8c41.5,0,83,0,124.5,0c1.8,0,3.7,0,5.4,0.6
		c4.6,1.5,7.1,5,7.2,9.8c0.1,4.7-2.3,8.2-6.8,10c-2.4,0.9-4.9,0.9-7.4,0.9c-40.2,0-80.3,0-120.5,0c-10.7,0-14.5,3.8-14.5,14.3
		c0,40.3,0,80.6,0,121c0,10.1,3.8,13.9,13.8,14c12.2,0,24.3,0,36.5,0c9.8,0,13.6,3.9,13.7,13.6c0,4.1,0,8.3,0,12.4
		c2,0.7,2.6-0.9,3.4-1.7c6.5-6.4,13.1-12.9,19.4-19.4c3.1-3.2,6.7-4.8,11.1-4.8c13,0,26-0.1,39,0c6.5,0.1,10.6,3,11.8,7.9
		c1.2,4.9-0.7,9.6-5,11.9c-2.6,1.4-5.4,1.6-8.2,1.6c-8.7,0-17.4,0.5-26-0.2c-6.8-0.5-11.4,1.9-16,6.7c-9.9,10.6-20.4,20.6-30.6,30.9
		c-2,2-4.1,3.9-7,4.7c-7,1.8-13.1-3.1-13.3-10.9c-0.2-8.8-0.2-17.7,0-26.5c0.1-3.7-0.8-4.9-4.6-4.8c-9.8,0.2-19.7,0.4-29.5-0.3
		c-15.1-1.1-24.6-9.7-29-24.1c-0.2-0.8-0.7-1.5-1-2.2C0,226,0,180,0,134z"/>
	<path class="st0" d="M512,165c-2.9,10.3-8.1,18.9-18.2,23.7c-4,1.9-8.1,3-12.5,3.2c-6.2,0.3-10.9-3.5-11.7-9.2
		c-0.8-5.8,2.7-10.4,9-11.7c9.9-2.1,12.1-4.8,12.1-15c0-40,0-80,0-120c0-11-3.7-14.7-14.7-14.7c-68.5,0-137,0-205.5,0
		C259.7,21.3,256,25,256,36c0,12.3,0,24.7,0,37c0,4.8-1.6,8.9-6.2,11.1c-6,3-14.2-0.6-14.6-7.3c-0.9-17.1-1.9-34.4,0.4-51.4
		C237.4,13,246,5,258.2,1.2c1.3-0.4,2.5-0.8,3.8-1.2c74.3,0,148.7,0,223,0c2.9,1.1,6,2,8.8,3.3C504,8,509.1,16.7,512,27
		C512,73,512,119,512,165z"/>
	<path class="st0" d="M139,512c-0.1-16.8-0.1-33.6-0.3-50.4c0-2.2,0.8-2.9,2.9-2.9c5,0.1,10,0.2,15,0c3.7-0.2,3.4,2,3.4,4.4
		c0,16.3,0,32.6,0,48.9C153,512,146,512,139,512z"/>
	<path class="st0" d="M352,512c0-16.3,0.1-32.6-0.1-48.9c0-3.5,1-4.6,4.5-4.4c4.6,0.3,9.3,0.1,14,0.1c2.1,0,3,0.7,2.9,2.9
		c-0.1,16.8-0.2,33.6-0.3,50.4C366,512,359,512,352,512z"/>
	<path class="st0" d="M426.8,198.3c0-6.5-0.1-11.3,0-16.1c0.2-7.1,4.4-11.4,10.6-11.4c6.1,0,10.5,4.5,10.6,11.5
		c0.2,13.3,0,26.6,0.1,40c0,5.1-1.6,9.3-6.5,11.3c-5,2.1-9.3,0.3-13.1-3.4c-11.6-11.7-23.4-23.3-34.9-35c-2.3-2.3-4.6-3.4-7.8-3.2
		c-4,0.2-8,0.2-12,0c-6.6-0.4-10.9-4.7-10.9-10.7c0-6,4.3-10.2,11-10.4c6.7-0.2,13.3,0,20-0.1c4.4,0,7.5,2.1,10.4,5.1
		C411.4,183,418.5,190.1,426.8,198.3z"/>
	<path class="st0" d="M96,170.7c-16.2,0-32.3-0.1-48.5,0.1c-3.6,0-5.1-0.8-4.8-4.7c0.3-4.3,0.2-8.7,0-13c-0.2-3.1,1.1-3.9,4.1-3.9
		c32.8,0.1,65.7,0.1,98.5,0c3,0,4.2,0.8,4.1,3.9c-0.2,4.5-0.3,9,0,13.5c0.2,3.4-1.2,4.2-4.3,4.2C128.7,170.7,112.3,170.7,96,170.7z"
		/>
	<path class="st0" d="M96,213.3c-16.2,0-32.3-0.1-48.5,0.1c-3.6,0-5.3-0.7-4.8-4.6c0.6-5.4-2.3-12.5,1.1-15.8
		C47,189.8,54,192,59.3,192c28.2-0.1,56.3,0.1,84.5-0.2c4.8,0,6,1.5,5.6,5.9c-0.3,3.5-0.4,7,0,10.5c0.5,4.4-1.3,5.2-5.4,5.1
		C128,213.1,112,213.3,96,213.3z"/>
	<path class="st0" d="M416,106.7c-10.8,0-10.8,0-10.8-10.6c0-10.9,0-10.9,11-10.9c10.5,0,10.5,0,10.5,10.3c0,0.2,0,0.3,0,0.5
		C426.7,106.7,426.7,106.7,416,106.7z"/>
	<path class="st0" d="M330.1,106.7c-10.1,0-10.1,0-10.1-10.1c0-11.4,0-11.4,11.3-11.4c10,0,10,0,10,9.8c0,0.2,0,0.3,0,0.5
		C341.3,106.7,341.3,106.7,330.1,106.7z"/>
	<path class="st0" d="M384,96.1c0,10.6,0,10.6-10.6,10.6c-10.7,0-10.7,0-10.7-10.6c0-10.9,0-10.9,10.9-10.9
		C384,85.3,384,85.3,384,96.1z"/>
	<path class="st0" d="M106.7,245.5c0,10.5,0,10.5-10.7,10.5c-10.8,0-10.8,0-10.8-10.9c0-10.3,0-10.3,10.5-10.3
		C106.7,234.7,106.7,234.7,106.7,245.5z"/>
	<path class="st0" d="M64,245.4C64,256,64,256,53.5,256c-10.8,0-10.8,0-10.8-10.9c0-10.4,0-10.4,10.3-10.4c0.2,0,0.3,0,0.5,0
		C64,234.7,64,234.7,64,245.4z"/>
	<path class="st0" d="M255.8,480c-10.5,0-10.5,0-10.5-10.7c0-10.6,0-10.6,10.7-10.6c10.8,0,10.8,0,10.8,10.5
		C266.7,480,266.7,480,255.8,480z"/>
</g>
</svg>
