<?xml version="1.0" encoding="utf-8"?>
<!-- Generator: Adobe Illustrator 28.1.0, SVG Export Plug-In . SVG Version: 6.00 Build 0)  -->
<svg version="1.1" id="Warstwa_1" xmlns="http://www.w3.org/2000/svg" xmlns:xlink="http://www.w3.org/1999/xlink" x="0px" y="0px"
	 viewBox="0 0 373.7 326.8" style="enable-background:new 0 0 373.7 326.8;" xml:space="preserve">
<style type="text/css">
	.st0{fill:#35AD65;}
</style>
<g>
	<path class="st0" d="M187,273.7c-54.2,0-108.4,0-162.6,0C4.9,273.7,0,269,0,249.9c0-71.7,0-143.5,0-215.2C0,11.3,11.1,0,34.2,0
		C136,0,237.7,0,339.5,0c23.3,0,34.2,11,34.2,34.5c0,72.1,0,144.3,0,216.4c0,17.8-5.1,22.8-22.9,22.8
		C296.2,273.8,241.6,273.7,187,273.7z M185.6,264c54.2,0,108.4-0.2,162.6,0.2c11,0.1,15-3,14.9-14.5c-0.5-72.1-0.2-144.3-0.2-216.4
		c0-16.5-6-22.4-22.5-22.4c-102.2,0-204.3,0-306.5,0c-17.1,0-23,5.9-23,23.3c0,71.8,0.2,143.5-0.2,215.3
		c-0.1,11.3,3.5,14.9,14.7,14.8C78.7,263.8,132.2,264,185.6,264z"/>
	<path class="st0" d="M81.6,326.9c-12.9,0-25.7-0.3-38.6,0.1c-6.2,0.2-7.9-2.1-8-8.1c-0.3-14.9,9.5-29.9,23-34.7
		c3.4-1.2,4,0.9,5.4,2.5c1.8,2.1,3.6,4.3,0.2,6.7c-4.7,3.4-9.4,7-14.1,10.4c-3.3,2.4-4.2,5.6-3.2,9.2c1.2,4.3,5,2.9,7.8,2.9
		c18.3,0.1,36.6,0.1,55,0c2.8,0,6.6,1.2,7.7-3.2c0.9-3.8-0.3-6.8-3.5-9.2c-4.4-3.2-8.7-6.6-13.1-9.8c-2.8-2.1-3-4.2-0.8-6.8
		c1.7-2.1,2.7-3.9,6.5-2.2c15.2,7.1,22,17.5,22.1,32.8c0,6.9-1.6,9.8-9.1,9.4C106.5,326.5,94,326.9,81.6,326.9z"/>
	<path class="st0" d="M292.1,326.9c-12.1,0-24.2-0.5-36.2,0.2c-8.6,0.5-10.5-2.7-10.2-10.6c0.5-12.8,11.5-28.5,23.2-32.3
		c3.4-1.1,4,1.2,5.4,2.8c2,2.2,3.1,4.4-0.2,6.7c-4.5,3.1-8.7,6.6-13.2,9.7c-3.7,2.5-5.2,5.9-3.8,10c1.4,4.1,5.2,2.6,8,2.6
		c18.3,0.1,36.6,0.1,54.9,0c2.8,0,6.7,1.2,7.4-3.4c0.5-3.2-0.1-6.2-2.9-8.3c-4.7-3.5-9.3-7-14-10.6c-2.9-2.2-2.4-4.4-0.3-6.9
		c1.8-2.2,3-3.5,6.5-1.8c16.5,8.1,22.3,17.3,21.9,34.1c-0.2,6.2-2.1,8.3-8.1,7.9c-6.6-0.4-13.2-0.1-19.9-0.1
		C304.6,326.9,298.3,326.9,292.1,326.9z"/>
	<path class="st0" d="M250.3,136.7c0.4,59.5-46.9,107.8-105.9,108.2c-60.3,0.4-109.2-47.8-109.3-107.7c-0.1-59,47.7-107,107-107.4
		C202.5,29.5,249.9,76.3,250.3,136.7z M142.4,234.1c54,0,98.1-43.5,98.1-96.6c0-53.3-44.4-97.8-97.5-97.8c-53.5,0-97.2,44-97.1,97.7
		C46.1,190.9,89.2,234.2,142.4,234.1z"/>
	<path class="st0" d="M301.6,35.2c8.1,0,16.3,0.1,24.4,0c4.4-0.1,6.3,1.6,6.2,6.2c-0.1,4.6-3.1,4.6-6.4,4.6c-12,0-24,0-36,0
		c-5,0-10.6-1-9.8,7.1c0.4,4.6-2.9,4.5-6.2,4.5c-3.8,0-4.1-2.3-4.5-5.2c-2.3-15.1-0.5-17.2,14.9-17.3
		C290,35.2,295.8,35.2,301.6,35.2z"/>
	<path class="st0" d="M305.9,151.3c-5.4,0-10.9,0.1-16.3,0c-5.3-0.1-10.3-0.5-9.6,7.4c0.4,4.7-3.3,4.3-6.4,4.3
		c-3.8,0-3.9-2.6-4.3-5.4c-2.1-15.4-0.7-17,15.1-17c12.4,0,24.8-0.2,37.2,0.1c3.9,0.1,10.2-2.9,10.6,5c0.4,8-6,5.3-10,5.6
		C316.8,151.6,311.3,151.3,305.9,151.3z"/>
	<path class="st0" d="M301.7,88.5c7.4,0,14.8-0.2,22.2,0c3.5,0.1,8.4-1.6,8.1,5c-0.3,5.7-4.5,4.3-7.7,4.4c-11.3,0.2-22.6,0.2-33.9,0
		c-5.7-0.1-10.9-0.5-10.8,8c0.1,5.4-5.7,4.8-7.8,3.2c-5.4-4.2-1.9-10.7-2.4-16.3c-0.4-4.7,3.5-4.3,6.6-4.3
		C284.6,88.5,293.2,88.5,301.7,88.5z"/>
	<path class="st0" d="M301.5,193.9c8.2,0,16.3,0,24.5,0c3.3,0,6.1,0.2,6.1,4.8c0,4.7-3,4.7-6.2,4.7c-11.7,0-23.3,0-35,0.1
		c-5.3,0-11.5-1.4-11,7.5c0.2,3.8-2.8,4-5.7,4c-3.4,0-4.4-1.7-5-5c-2.3-13.5-0.3-16.2,13.6-16.2C289,193.8,295.3,193.8,301.5,193.9
		C301.5,193.8,301.5,193.8,301.5,193.9z"/>
	<path class="st0" d="M175.9,144c9.2-1.1,15.4-6.1,20.2-13.8c3.5-5.7,7.6-11.7,15.6-9.3c7.6,2.3,8.9,9.4,9.7,16
		c2.9,22.9-16.5,57.3-37.5,66.9c-17.6,8.1-39.6-4.4-45.7-26c-0.9-3.3,0-7.7-3.5-9.5c-4.3-2.2-9-7.4-13.3-5.3c-5,2.4-3.3,9.2-2.4,14
		c0.9,4.8,4,9.2,5.7,13.9c4.1,11.5-2.1,18.7-14,16.5c-7.5-1.4-13.8-5.4-19.3-10.4c-13.7-12.4-22.5-28-25.7-46.1
		C61,125,82,106.9,109.3,112.5c2.3,0.5,4.4,1.6,6.7,2c7.2,1.2,13-3.9,15.4-8.3c2-3.8-5.4-6.9-9.7-9.3c-4-2.3-8.3-1.6-12.5-1.9
		c-6-0.4-12-1.7-14.4-8c-2.6-6.6,1.7-11.1,6.1-15.1c18.6-17,63.2-17.7,82.2-1.5c12.1,10.4,11.7,34.4-0.8,48.9
		C173.6,129.3,173.6,129.3,175.9,144z M106,81.8c3.2,3.7,6.5,2.1,9.4,2.5c14.3,1.8,27.9,12.4,31.1,24.8c0.6,2.1,3.3,6.4-1,6.6
		c-9.3,0.5-16.3,4.1-21.6,11.7c-2.2,3.1-4.8-0.2-7.2-0.9c-4.8-1.6-9.5-3.9-14.4-4.6c-13.7-2-28.1,8.8-27,20.8
		c2,21.2,11.6,38.6,29.5,50.7c2.6,1.7,5.7,4.6,10,1.3c-8-14-9.9-28.4-0.8-42.8c3.6-5.6,7.3-11,13.1-1.5c1.5,2.5,4.6,5.2,7.2,5.5
		c10.6,1.2,12.5,7.7,13.7,17c1.5,11.6,9.3,19.7,21,22.5c10.3,2.5,16.7-4.9,22.8-11.3c8.2-8.5,14.1-18.6,17.2-30.1
		c1.9-7,2.7-14.1,0-21.1c-4.8,0.7-4.9,4.5-6.8,6.8c-9.1,11.1-20.5,16.1-35,14.6c-6.6-0.7-9.2-2.5-5.4-9.1c2.9-5,2.7-10.7,0.3-15.8
		c-2.5-5.1-0.6-7.4,3.6-10.3c10.9-7.5,18.4-17.2,15-31.5c-3.4-14.4-16.2-16.2-27.4-17.6C136.7,68,119.7,68.3,106,81.8z"/>
</g>
</svg>
