<?xml version="1.0" encoding="utf-8"?>
<!-- Generator: Adobe Illustrator 28.1.0, SVG Export Plug-In . SVG Version: 6.00 Build 0)  -->
<svg version="1.1" id="Warstwa_1" xmlns="http://www.w3.org/2000/svg" xmlns:xlink="http://www.w3.org/1999/xlink" x="0px" y="0px"
	 viewBox="0 0 336.8 330.9" style="enable-background:new 0 0 336.8 330.9;" xml:space="preserve">
<style type="text/css">
	.st0{fill:#4BB276;}
</style>
<g>
	<path class="st0" d="M336.8,209.8c0,34.4,0,68.9,0,103.3c0,6.5-2.1,11.7-7.6,15.3c-2.8,1.8-5.9,2.4-9.3,2.4c-42.2,0-84.3,0-126.5,0
		c-10.1,0-16.3-6-17-16c-0.1-2.2-0.9-2.7-2.9-2.7c-11,0.1-22,0-32.9,0c-1.4,0-2.6,0.1-3.3,1.7c-3.1,6.3-8.7,9.9-14.9,12.3
		c-16.1,6.2-32.4,6.1-48.8,1.2c-2.1-0.6-3.9-0.7-6.1-0.1c-16.1,4.8-32.2,4.8-48.3,0c-3.2-1-6.3-2.4-9.2-4.2
		c-6.1-3.7-9.2-8.8-9.2-16.3c0.3-25.6,0.1-51.1,0-76.7c0-7.3,4.1-12.2,10.2-14.8c5.7-2.4,6.4-5.9,6.4-11.4
		c-0.2-75.3,0.1-106.7-0.3-182C17.3,6.8,27.6,0,39.4,0c55,0.3,110,0.2,165,0c5,0,8.2,1.4,11.6,4.9c14.1,14.5,28.5,28.6,42.9,42.8
		c1.7,1.7,2.1,3.5,2.1,5.7c0,25.1,0.1,6.1-0.1,31.2c0,3.8,1.1,4.4,4.6,4.4c17.6-0.2,35.2-0.1,52.8-0.1c12.4,0,18.6,6.2,18.6,18.6
		C336.8,141.7,336.8,175.7,336.8,209.8z M26,90.6c0,38.4,0,76.8-0.1,115.3c0,3,0.7,3.9,3.7,3.3c6.1-1.2,12.4-1.4,18.6-1.1
		c5.4,0.3,5.4,0.3,5.4-5.1c0-5.9-0.5-11.8,0.2-17.6c0.9-7.3,6.4-11.2,12.6-14.2c11.1-5.3,23-6.5,35-5.8c10.2,0.6,20.1,2.4,28.8,8.2
		c5.8,3.8,8.7,9,8.6,16.3c-0.2,36.9-0.1,73.8-0.2,110.8c0,2.4,0.6,3.2,3.1,3.2c10.1-0.1,20.2-0.2,30.3,0c3.4,0.1,4.3-0.8,4.3-4.3
		c-0.1-63.9-0.1-127.7-0.1-191.6c0-12.6,6.2-18.9,18.8-18.9c17.8,0,35.7-0.1,53.5,0.1c2.8,0,3.9-0.5,3.9-3.6c-0.1-23.3-0.1-2.7,0-26
		c0-3.1-1.1-3.7-3.9-3.6c-11,0.1-22,0.1-32.9,0c-7.5,0-10.7-3.1-10.7-10.7c0-11-0.1-22,0.1-32.9c0-3-0.9-3.7-3.8-3.7
		C147.2,8.6,93.1,8.6,38.9,8.6c-9.2,0-12.9,3.8-12.9,13C26,59.2,26,52.9,26,90.6z M328.4,210.1c0-34.3,0-68.6,0-102.9
		c0-7-2.5-9.6-9.3-9.6c-41.4,0-82.8,0-124.2,0c-7.4,0-9.8,2.5-9.8,9.9c0,68.3,0,136.7,0,205c0,7.4,2.5,9.8,9.9,9.8
		c41.2,0,82.3,0,123.5,0c7.6,0,10-2.4,10-10.1C328.4,278.2,328.4,244.2,328.4,210.1z M96,173.6c-10.1,0.4-20.4,1.3-29.4,7.3
		c-5.5,3.7-5.5,7.6,0,11.4c1.1,0.8,2.3,1.5,3.5,2.1c6,3,12.5,4.3,19.1,4.8c11.3,0.9,22.4,0.2,32.9-4.6c3.5-1.6,7.9-3.2,7.9-8
		c0-4.8-4.3-6.3-7.9-8C114,174.7,105.2,173.9,96,173.6z M43.6,216.5c-5.7,0-11.5,0.4-17.1,1.8c-4,1-7.9,2.2-11.5,4.3
		c-7.2,4.3-7.2,8.6,0.2,12.7c2.4,1.3,4.9,2.4,7.6,3.2c11.3,3.4,22.8,3.8,34.4,1.7c6.3-1.1,12.4-2.8,17.5-6.9
		c3.6-2.9,3.6-5.6,0.1-8.7c-2.1-1.8-4.5-3.1-7.1-4.1C60,217.5,51.9,216.5,43.6,216.5z M62.4,200.4c0,2.1,0.2,4,0,5.8
		c-0.4,2.9,0.7,4.1,3.6,4.8c4.7,1.1,9.2,3.2,13.1,6.1c3.2,2.5,6.2,5.4,6.6,9.6c0.3,3.5,1.6,4.9,5,4.5c0.7-0.1,1.5,0.2,2.2,0.2
		c11.2,0.3,22.1-0.9,32-7c3.3-2.1,5.6-4.8,5.4-9.1c-0.2-3.5,0-7,0-10.5c0-4.6,0-4.6-4.3-2.6c-1.6,0.7-3.2,1.5-4.8,2
		C101.4,210.2,82,209.6,62.4,200.4z M77.5,269.4c-22.8,10.2-45.2,10.1-68,0c0,3,0.3,5.9-0.1,8.7c-0.8,6.5,2.4,9.9,7.9,12.3
		c10.8,4.7,22.1,5.6,33.7,4.6c7.6-0.7,15-2.2,21.7-6.3c2.3-1.4,4.6-3,4.7-5.9C77.7,278.4,77.5,274,77.5,269.4z M9.5,242.4
		c0,3.2,0.3,6.1-0.1,8.9c-0.8,6.3,2.5,9.7,7.7,12.1c10.6,4.7,21.8,5.7,33.3,4.8c7.7-0.6,15.3-2.1,22.1-6.2c2.3-1.4,4.7-2.9,4.9-5.8
		c0.3-4.5,0.1-9,0.1-13.7C53.3,252.6,35.3,252.6,9.5,242.4z M77.6,295.9c-10.9,6.1-22.2,7.9-33.9,7.9c-11.8,0-23.2-1.9-34.1-7.8
		c0,3.3,0.3,6-0.1,8.7c-1.1,6.9,2.7,10.4,8.3,12.8c10.2,4.4,20.9,5.4,31.8,4.6c7.9-0.6,15.5-2.1,22.5-6c3.6-2,5.9-4.7,5.5-9.3
		C77.3,303.4,77.6,300,77.6,295.9z M130,292.1c-13.3,7.6-27.1,9.4-41.5,8c-2.2-0.2-2.6,0.6-2.5,2.4c0.2,6.5,0.7,13.1-5.6,17.9
		c7.9,2,15.1,2.4,22.3,1.6c8-0.8,15.8-2.4,22.6-7.1c2.2-1.5,4.5-3.2,4.7-6C130.2,303.6,130,298.1,130,292.1z M130.2,261.7
		c-4.8,2.7-9.3,4.7-14.1,6c-8.9,2.4-18,2.8-27.1,2.1c-2.2-0.2-3.2,0.2-3.1,2.7c0.2,5.4,0.1,10.7,0,16.1c0,2.1,0.7,2.8,2.8,3
		c5.6,0.5,11.2,0.5,16.8-0.2c6.6-0.9,13-2.5,18.7-6.1c2.4-1.5,5.1-3.2,5.6-6.2C130.7,273.6,130.3,267.9,130.2,261.7z M86,250.1
		c0,2.9,0,5.7,0,8.6c0,1.5,0.3,2.3,2,2.5c12.7,1.4,24.9,0.3,36.2-6.1c4.1-2.3,6.5-5.7,6.1-10.6c-0.2-2.1,0-4.2,0-6.4
		c0-6.5,0-6.5-5.6-3.8c-1.2,0.6-2.5,1.2-3.8,1.6c-10.4,3.7-21.1,4.8-32,3.7c-2.4-0.2-3.1,0.3-3,2.6C86.1,244.9,86,247.5,86,250.1z
		 M245,47.4c-10.5-10.4-20.9-20.9-31.3-31.3c0,9.6,0,19.5,0,29.4c0,1.1,0.3,1.9,1.7,1.9C225.4,47.4,235.4,47.4,245,47.4z"/>
	<path class="st0" d="M101.2,113.9c-16.7,0-33.4,0-50.1,0c-1.4,0-2.8,0-4.1-0.3c-1.9-0.4-3-1.7-3.1-3.7c-0.1-2.2,0.9-3.7,2.9-4.3
		c1.2-0.4,2.5-0.3,3.7-0.3c33.9,0,67.9,0,101.8,0c1.1,0,2.3,0,3.3,0.2c2,0.5,3.1,2,3.1,4.1c0,2.1-1.1,3.6-3.2,4
		c-1.3,0.2-2.7,0.3-4.1,0.3C134.6,113.9,117.9,113.9,101.2,113.9z"/>
	<path class="st0" d="M101.6,133.3c16.6,0,33.2,0,49.8,0c1.2,0,2.5,0,3.7,0.1c2.3,0.3,3.6,1.7,3.6,4.1c0,2.3-1.3,3.7-3.5,4.2
		c-1,0.2-2,0.1-3,0.1c-33.9,0-67.9,0-101.8,0c-1.1,0-2.3,0.1-3.3-0.2c-2.2-0.6-3.4-2.1-3.2-4.4c0.1-2.2,1.4-3.4,3.5-3.8
		c1.2-0.2,2.5-0.2,3.7-0.2C67.9,133.3,84.7,133.3,101.6,133.3z"/>
	<path class="st0" d="M256.5,113c16.8,0,33.7,0,50.5,0c6.9,0,9,2,9,8.9c0,9.7,0,19.5,0,29.2c0,6.5-2.3,8.7-8.8,8.7
		c-33.7,0-67.3,0-101,0c-6.6,0-8.8-2.2-8.8-8.7c0-9.9,0-19.7,0-29.6c0-6.3,2.2-8.5,8.6-8.5C222.8,113,239.7,113,256.5,113z
		 M256.5,151.1c16,0,31.9,0,47.9,0c2.4,0,3.3-0.5,3.2-3.1c-0.2-7.9-0.1-15.7,0-23.6c0-2.3-0.6-3-2.9-3c-31.9,0.1-63.8,0.1-95.7,0
		c-2.6,0-3.1,1-3.1,3.3c0.1,7.6,0.2,15.2,0,22.8c-0.1,2.8,0.8,3.6,3.6,3.6C225.1,151.1,240.8,151.1,256.5,151.1z"/>
	<path class="st0" d="M284.6,266.2c0-10.2,0-20.4,0-30.7c0-8.4,1.9-10.2,10.4-10.2c4.4,0,8.7-0.1,13.1,0c5.4,0.1,8,2.6,8,8.1
		c0.1,21.7,0.1,43.4,0,65c0,5.8-2.5,8.2-8.2,8.3c-5.1,0-10.2,0.1-15.3,0c-5.5-0.1-7.9-2.4-8-8C284.5,287.9,284.6,277.1,284.6,266.2z
		 M293.2,265.8c0,7.4-0.1,14.7,0,22.1c0,3.3-1.4,7.7,0.6,9.7c2.2,2.2,6.6,0.4,10.1,0.8c2.9,0.3,3.8-0.6,3.8-3.6
		c-0.2-16.6,0-33.2-0.1-49.8c0-3.6,1.6-8.2-0.7-10.4c-2.3-2.1-6.9-0.3-10.5-0.6c-2.4-0.2-3.2,0.6-3.2,3.1
		C293.3,246.6,293.2,256.2,293.2,265.8z"/>
	<path class="st0" d="M272.3,241.4c0,2.9,0.1,5.7,0,8.6c-0.1,4.1-2.3,6.6-6.4,6.8c-6.1,0.2-12.2,0.2-18.3,0c-4-0.1-6.4-2.6-6.5-6.7
		c-0.2-6-0.2-12,0-17.9c0.1-4,2.6-6.5,6.7-6.6c6-0.2,12-0.2,17.9,0c4.3,0.1,6.5,2.6,6.7,6.9C272.3,235.5,272.3,238.4,272.3,241.4z
		 M263.9,241.2c0-7.2,0-7.2-7.1-7.2c-7.3,0-7.3,0-7.3,7.1c0,7.2,0,7.2,7.1,7.2C263.9,248.3,263.9,248.3,263.9,241.2z"/>
	<path class="st0" d="M256.6,175.6c3,0,6-0.1,9,0c4.1,0.1,6.6,2.5,6.7,6.5c0.1,6.1,0.1,12.2,0,18.3c-0.1,3.8-2.4,6.3-6.4,6.4
		c-6.1,0.2-12.2,0.2-18.3,0c-4.2-0.2-6.5-2.8-6.6-7.1c-0.1-5.7-0.1-11.5,0-17.2c0.1-4.6,2.7-6.9,7.4-7
		C251.1,175.5,253.8,175.6,256.6,175.6z M256.8,198.2c7.1,0,7.1,0,7.1-6.5c0-7.8,0-7.8-7.7-7.8c-6.7,0-6.7,0-6.7,6.9
		C249.5,198.2,249.5,198.2,256.8,198.2z"/>
	<path class="st0" d="M272.3,291.4c0,3,0.1,6,0,9c-0.2,3.9-2.4,6.3-6.3,6.4c-6.1,0.2-12.2,0.1-18.3,0c-4-0.1-6.5-2.5-6.6-6.6
		c-0.2-6-0.2-11.9,0-17.9c0.1-4,2.6-6.5,6.6-6.6c6.1-0.2,12.2-0.2,18.3,0c4.1,0.1,6.2,2.7,6.4,6.8
		C272.3,285.4,272.3,288.4,272.3,291.4z M256.7,284c-7.1,0-7.1,0-7.1,7.2c0,7.1,0,7.1,7.3,7.1c7.1,0,7.1,0,7.1-7.2
		C263.9,284,263.9,284,256.7,284z"/>
	<path class="st0" d="M300.3,175.6c3,0,6-0.1,9,0c4,0.1,6.4,2.2,6.6,6.1c0.2,6.2,0.2,12.4,0,18.6c-0.1,4-2.6,6.3-6.8,6.5
		c-5.8,0.2-11.7,0.2-17.5,0c-4.5-0.1-6.7-2.7-6.8-7.2c-0.1-5.7-0.1-11.4,0-17.2c0.1-4.5,2.5-6.8,7-6.9c0.2,0,0.5,0,0.7,0
		C295.1,175.6,297.7,175.6,300.3,175.6C300.3,175.6,300.3,175.6,300.3,175.6z M300.5,183.9c-7.3,0-7.3,0-7.3,7.4c0,6.9,0,6.9,7,6.9
		c7.3,0,7.3,0,7.3-7.4C307.5,183.9,307.5,183.9,300.5,183.9z"/>
	<path class="st0" d="M197.4,240.9c0-2.7-0.1-5.5,0-8.2c0.1-4.4,2.3-6.9,6.5-7.1c6.1-0.2,12.2-0.2,18.3,0c4,0.1,6.4,2.6,6.5,6.7
		c0.1,5.9,0.1,11.7,0,17.6c-0.1,4.3-2.5,6.8-6.7,6.9c-6,0.2-12,0.2-17.9,0c-4.2-0.1-6.5-2.7-6.7-7c0-0.1,0-0.2,0-0.4
		C197.4,246.6,197.4,243.7,197.4,240.9z M212.9,234c-7.1,0-7.1,0-7.1,6.9c0,7.4,0,7.4,7.4,7.4c7.1,0,7.1,0,7.1-7
		C220.3,234,220.3,234,212.9,234z"/>
	<path class="st0" d="M197.4,191.2c0-3-0.1-6,0-9c0.2-4,2.6-6.5,6.6-6.6c6-0.1,11.9-0.1,17.9,0c4,0.1,6.7,2.5,6.8,6.4
		c0.2,6.1,0.2,12.2,0,18.3c-0.1,3.8-2.5,6.3-6.4,6.5c-6.1,0.2-12.2,0.2-18.3,0c-4.2-0.2-6.4-2.8-6.6-7.1c0-0.1,0-0.2,0-0.4
		C197.4,196.6,197.4,193.9,197.4,191.2z M213.3,198.2c7.1,0,7.1,0,7.1-7c0-7.3,0-7.3-7.4-7.3c-7.1,0-7.1,0-7.1,7
		C205.8,198.2,205.8,198.2,213.3,198.2z"/>
	<path class="st0" d="M212.9,306.8c-3,0-6,0.1-9,0c-4-0.2-6.4-2.6-6.5-6.7c-0.1-6-0.1-11.9,0-17.9c0.1-3.9,2.4-6.4,6.3-6.5
		c6.2-0.2,12.4-0.2,18.7,0c4,0.1,6.3,2.7,6.4,6.8c0.1,5.8,0.1,11.7,0,17.5c-0.1,4.3-2.6,6.6-6.8,6.7
		C218.9,306.9,215.9,306.8,212.9,306.8z M213.3,284c-7.4,0-7.4,0-7.4,7.4c0,7,0,7,7.1,7c7.4,0,7.4,0,7.4-7.3
		C220.3,284,220.3,284,213.3,284z"/>
</g>
</svg>
