<?xml version="1.0" encoding="utf-8"?>
<!-- Generator: Adobe Illustrator 28.1.0, SVG Export Plug-In . SVG Version: 6.00 Build 0)  -->
<svg version="1.1" id="Warstwa_1" xmlns="http://www.w3.org/2000/svg" xmlns:xlink="http://www.w3.org/1999/xlink" x="0px" y="0px"
	 viewBox="0 0 434.1 263.2" style="enable-background:new 0 0 434.1 263.2;" xml:space="preserve">
<style type="text/css">
	.st0{fill:#3DAF6B;}
</style>
<g>
	<path class="st0" d="M0,25.7c0.3-0.8,0.6-1.5,0.9-2.3C4.4,9.8,15.6,0.4,29.6,0.2C45.3-0.1,61,0,76.7,0.1c4.7,0,7.3,2.5,7.3,6.4
		c0,3.9-2.7,6.3-7.4,6.3c-14.7,0.1-29.4,0-44.1,0c-12.7,0-19.7,7.1-19.7,19.6c0,43.9,0,87.9,0,131.8c0,12.5,7.2,19.7,19.8,19.7
		c4.3,0,10.1,1.9,12.6-0.9c2.1-2.5,0.7-8.1,0.7-12.3c0-8.3,0-16.7,0-25c0-8,1.7-9.8,9.6-9.8c48.6,0,97.2,0,145.8,0
		c59.1,0,118.1,0,177.2,0c8.3,0,9.9,1.6,9.9,9.9c0,11.6,0.1,23.2,0,34.8c0,2.5,0.6,3.6,3.3,3.4c3.9-0.2,7.9,0.1,11.9-0.1
		c10.6-0.4,17.9-7.9,17.9-18.5c0.1-26.7,0-53.4,0-80.1c0-17.5,0-35,0-52.6c0-12.9-7-19.9-19.9-19.9c-98,0-196.1,0-294.1,0
		c-1.7,0-3.4,0.1-5.1-0.2c-3.5-0.7-5.6-3-5.3-6.6c0.2-3.5,2.4-5.7,6-5.9c1.3-0.1,2.5-0.1,3.8-0.1c97.9,0,195.8,0,293.7,0
		c16.4,0,27.9,7.8,32.2,21.6c1.1,3.7,1.4,7.5,1.4,11.3c0,43.5,0,87,0,130.5c0,20.6-12.7,33.3-33.3,33.3c-85.3,0-170.7,0-256,0
		c-7.1,0-14.1,0.1-21.2,0c-4.7-0.1-7.5-2.4-7.5-6.3c0-3.4,1.7-5.6,5.1-6.3c1.8-0.3,3.7-0.2,5.5-0.2c81.2,0,162.5,0,243.7-0.1
		c1.7,0,4.3,1.1,4.9-1c0.8-3.1,0.8-6.5-0.1-9.6c-0.3-1.1-2.3-0.6-3.6-0.6c-10.2,0-20.3,0-30.5,0c-1.1,0-2.3,0-3.4,0
		c-4.1-0.3-6.7-2.6-6.8-6.1c-0.1-3.6,2.6-6.4,6.8-6.6c3.2-0.2,6.5-0.1,9.7-0.1c8.3,0,16.7-0.1,25,0c2.3,0,3.2-0.6,3.2-3.1
		c0.2-8.2,0.3-8.2-7.8-8.2c-101.3,0-202.6,0-303.9,0c-1.7,0-4.6-0.9-5,0.8c-0.7,3.1-0.3,6.4-0.1,9.6c0,0.7,1.1,0.7,1.8,0.7
		c1.4,0,2.8,0,4.2,0c80.8,0,161.6,0,242.4,0c2,0,4,0,5.9,0.4c3.4,0.7,5,3,4.8,6.5c-0.2,3.2-2,5.2-5.2,5.7c-1.8,0.3-3.7,0.2-5.5,0.2
		c-81,0-161.9,0-242.9,0c-1.9,0-5-1-5.4,0.8c-0.8,3-0.5,6.4-0.1,9.6c0.2,1.4,2.2,0.8,3.3,0.8c10.5,0,20.9,0,31.4,0
		c1.4,0,2.8,0,4.2,0.1c3.3,0.4,5.1,2.6,5.4,5.6c0.3,3.1-1.3,5.5-4.4,6.4c-1.6,0.5-3.3,0.5-5,0.5c-18.8,0-37.6-0.5-56.4,0.2
		c-20,0.7-33.5-8.5-37.4-26.3C0,122.3,0,74,0,25.7z"/>
	<path class="st0" d="M273.8,51.9c-19.2,0-38.4,0-57.6,0c-1.8,0-3.7,0.2-5.4-0.7c-2.7-1.3-4.1-3.6-3.7-6.5c0.4-2.9,2.1-4.9,5.2-5.4
		c1.1-0.2,2.3-0.1,3.4-0.1c38.7,0,77.4,0,116.1,0c0.7,0,1.4,0,2.1,0c3.8,0.2,6.2,2.5,6.4,6c0.1,3.6-2.3,6.3-6.2,6.6
		c-2.4,0.2-4.8,0.1-7.2,0.1C309.1,51.9,291.5,51.9,273.8,51.9z"/>
	<path class="st0" d="M126.2,221.9c-1.7,16.3-9.1,29.8-22.7,39.9c-3.2,2.3-6.9,1.9-9.1-0.8c-2.3-2.8-1.8-6.7,1.5-9.3
		c8-6.1,13.7-13.8,16.2-23.6c0.6-2.4,1.1-5,1.4-7.5c0.6-4.6,3.1-7.1,7-6.7C124.1,214.2,126.4,217.1,126.2,221.9z"/>
	<path class="st0" d="M314.9,213.8c2.9,0.3,5.2,2.1,5.5,5.7c1.1,13.3,7,23.9,17.6,31.9c3.4,2.6,3.9,6.4,1.7,9.3
		c-2.3,3-6.1,3.3-9.7,0.6c-13-9.8-20.2-22.9-22.1-38.9C307.3,217.2,309.9,213.8,314.9,213.8z"/>
	<path class="st0" d="M274.9,238.5c0,5.9,0.1,11.8,0,17.8c-0.1,4.5-2.4,6.9-6.3,6.9c-3.8,0-6.4-2.5-6.4-6.9
		c-0.1-11.8-0.1-23.7,0-35.5c0-4.3,2.6-6.9,6.4-6.9c3.8,0,6.2,2.5,6.3,6.9C274.9,226.7,274.9,232.6,274.9,238.5z"/>
	<path class="st0" d="M159.2,238.2c0-5.8-0.1-11.6,0-17.3c0.1-4.4,2.4-7,6.2-7c3.8-0.1,6.5,2.5,6.5,6.8c0.1,12,0.1,24,0,35.9
		c-0.1,4.3-2.8,6.8-6.7,6.6c-3.6-0.1-5.9-2.6-6-6.8C159.1,250.3,159.2,244.3,159.2,238.2z"/>
	<path class="st0" d="M212.5,238.5c0-5.9-0.1-11.8,0-17.8c0.1-4.4,2.5-6.9,6.3-7c3.8,0,6.3,2.5,6.4,6.9c0.1,11.8,0.1,23.7,0,35.5
		c0,4.4-2.6,6.9-6.3,6.9c-4,0-6.3-2.5-6.3-7.3C212.4,250.1,212.5,244.3,212.5,238.5z"/>
	<path class="st0" d="M372.6,39.2c3.1,0,6.2-0.1,9.3,0c3.7,0.2,6.2,2.7,6.3,6c0.1,3.3-2.3,6.4-5.9,6.5c-6.6,0.2-13.3,0.3-19.9,0
		c-3.6-0.2-5.9-3.2-5.6-6.7c0.3-3.6,2.4-5.7,6-5.8C366.1,39,369.3,39.2,372.6,39.2z"/>
</g>
</svg>
